<svg width="800" height="800" viewBox="0 0 800 800" fill="none" xmlns="http://www.w3.org/2000/svg">
<path d="M66.667 533.333C66.667 439.053 66.667 391.913 95.9563 362.623C125.246 333.333 172.386 333.333 266.667 333.333H533.334C627.614 333.333 674.754 333.333 704.044 362.623C733.334 391.913 733.334 439.053 733.334 533.333C733.334 627.613 733.334 674.753 704.044 704.043C674.754 733.333 627.614 733.333 533.334 733.333H266.667C172.386 733.333 125.246 733.333 95.9563 704.043C66.667 674.753 66.667 627.613 66.667 533.333Z" stroke="#1C274C" stroke-width="50"/>
<path d="M200 333.334V266.667C200 156.21 289.543 66.667 400 66.667C510.457 66.667 600 156.21 600 266.667V333.334" stroke="#1C274C" stroke-width="50" stroke-linecap="round"/>
<path d="M617.501 472.999H587.501C584.502 472.999 581.501 475.249 580.751 478.249L559.752 540.499H539.502L519.252 506.749C517.751 504.499 515.501 502.999 512.502 502.999H482.502V480.499C482.502 475.999 479.502 472.999 475.002 472.999H422.5V443H445.001C449.501 443 452.5 440 452.5 435.5V390.5C452.5 386 449.501 383 445.001 383H310C305.5 383 302.501 386 302.501 390.5V435.5C302.501 440 305.5 443 310 443H332.5V472.999H272.5C270.25 472.999 268.75 473.749 267.25 475.249C265.751 476.75 265 478.249 265 480.499V502.999H212.5C208 502.999 205.001 505.999 205.001 510.499V555.499H190V533C190 528.5 187.001 525.5 182.501 525.5C178.001 525.5 175 528.5 175 533V593C175 597.5 178 600.5 182.5 600.5C187 600.5 189.999 597.5 189.999 593V570.5H205V630.5C205 635.001 207.999 638 212.499 638H268.75L296.499 680.001C298 681.501 300.25 683 302.5 683H512.501C515.5 683 517.75 681.5 519.251 678.5L539.501 638H560.5L580.751 678.5C582.251 681.5 584.501 683 587.501 683H617.5C622 683 625 680.001 625 675.501V480.5C625.001 476 622.001 472.999 617.501 472.999ZM317.5 397.999H437.5V427.999H415H340H317.5V397.999ZM347.501 443H407.501V472.999H347.501V443ZM220 623V517.999H265V623H220ZM507.251 668H306.25L280 628.27V510.5V488H340H415H467.501V510.5C467.501 515 470.5 517.999 475 517.999H508.001L527.501 550.5V627.5L507.251 668ZM542.5 623V555.5H557.501V623H542.5ZM610.001 668H592.001L572.5 630.392V548.026L592.75 488H610.001V668Z" fill="black"/>
<path fill-rule="evenodd" clip-rule="evenodd" d="M475.229 572.673C475.229 569.914 472.992 567.678 470.233 567.678L388.804 567.678C388.516 567.678 388.233 567.702 387.958 567.749C387.002 562.412 384.461 557.304 380.337 553.179C369.597 542.44 352.185 542.44 341.446 553.179C330.707 563.918 330.706 581.331 341.446 592.07C352.185 602.81 369.597 602.809 380.337 592.07C384.437 587.97 386.971 582.897 387.941 577.595C388.222 577.644 388.51 577.669 388.804 577.669L426.602 577.669L426.602 597.492C426.602 600.253 428.84 602.492 431.602 602.492C434.363 602.491 436.601 600.253 436.601 597.492L436.602 577.669L447.815 577.669L447.815 586.65C447.815 589.412 450.054 591.65 452.815 591.65C455.576 591.65 457.815 589.412 457.815 586.65L457.815 577.669L470.233 577.669C472.992 577.669 475.229 575.432 475.229 572.673ZM348.591 584.925C341.797 578.132 341.798 567.117 348.591 560.324C355.384 553.531 366.398 553.531 373.192 560.324C379.985 567.118 379.985 578.132 373.192 584.925C366.398 591.718 355.384 591.718 348.591 584.925Z" fill="#0F0F0F"/>
</svg>
