<svg width="458" height="308" viewBox="0 0 458 308" fill="none" xmlns="http://www.w3.org/2000/svg">
<path d="M299.233 192.177C302.821 192.178 305.729 195.086 305.729 198.673C305.729 202.261 302.821 205.169 299.233 205.169H288.315V212.65L288.306 212.985C288.132 216.419 285.292 219.15 281.815 219.15C278.337 219.15 275.497 216.419 275.323 212.985L275.315 212.65V205.169H267.102V223.492C267.102 226.969 264.371 229.808 260.936 229.983L260.602 229.992C257.012 229.992 254.102 227.081 254.102 223.492V205.169L218.146 205.168C216.966 210.286 214.383 215.145 210.398 219.13C199.073 230.455 180.711 230.456 169.385 219.13C158.06 207.805 158.061 189.443 169.385 178.118C180.711 166.793 199.073 166.793 210.398 178.118C214.408 182.128 216.998 187.025 218.168 192.177L299.233 192.177ZM201.131 187.385C194.923 181.178 184.86 181.177 178.652 187.384C172.444 193.592 172.444 203.657 178.652 209.864C184.859 216.072 194.924 216.072 201.131 209.864C207.339 203.656 207.338 193.593 201.131 187.385Z" fill="#0F0F0F" stroke="black" stroke-width="3"/>
<path d="M274.001 2C276.705 2.0001 279.115 2.91051 280.853 4.64844C282.59 6.38643 283.5 8.79574 283.5 11.5V56.5C283.5 59.2043 282.59 61.6136 280.853 63.3516C279.115 65.0895 276.705 65.9999 274.001 66H253.501V91.999H304.002C306.706 91.999 309.115 92.9095 310.854 94.6475C312.592 96.3855 313.502 98.7946 313.502 101.499V121.999H341.502C345.159 121.999 347.93 123.81 349.743 126.388L349.916 126.64L349.942 126.68L349.967 126.721L369.634 159.499H387.315L407.842 98.6504C408.865 94.7954 412.646 91.9992 416.501 91.999H446.501C449.206 91.999 451.615 92.9101 453.353 94.6484C455.09 96.3867 456 98.7956 456 101.5V296.501C456 299.205 455.089 301.615 453.352 303.353C451.614 305.09 449.204 306 446.5 306H416.501C414.651 306 412.943 305.532 411.454 304.539C409.978 303.555 408.831 302.132 407.962 300.395L388.265 261H369.737L350.039 300.395C349.17 302.131 348.024 303.555 346.548 304.539C345.059 305.532 343.351 306 341.501 306H131.5C128.452 306 125.715 304.045 124.085 302.415L123.942 302.271L123.831 302.104L96.6738 261H41.499C38.7948 261 36.3854 260.09 34.6475 258.353C32.9095 256.615 32.0001 254.205 32 251.501V193.5H20.999V214C20.999 216.704 20.0894 219.114 18.3516 220.852C16.6136 222.59 14.2043 223.5 11.5 223.5C8.79559 223.5 6.38645 222.59 4.64844 220.852C2.91042 219.114 2 216.704 2 214V154L2.01074 153.496C2.11714 150.997 3.01906 148.778 4.64844 147.148C6.38665 145.411 8.79655 144.5 11.501 144.5C14.2053 144.5 16.6146 145.41 18.3525 147.148C20.0903 148.886 21 151.296 21 154V174.499H32.001V131.499C32.001 128.795 32.9106 126.385 34.6484 124.647C36.3864 122.91 38.7957 121.999 41.5 121.999H92V101.499C92 100.14 92.2291 98.9189 92.7354 97.7803C93.2376 96.6506 93.9686 95.7038 94.8359 94.8359C95.7039 93.9675 96.6511 93.2366 97.7812 92.7344C98.9201 92.2283 100.142 91.999 101.5 91.999H159.5V66H139C136.296 65.9999 133.886 65.0895 132.148 63.3516C130.41 61.6136 129.501 59.2044 129.501 56.5V11.5C129.501 8.79569 130.411 6.38643 132.148 4.64844C133.886 2.91048 136.296 2.00006 139 2H274.001ZM403.5 169.355V250.904L422.217 287H437.001V111H423.187L403.5 169.355ZM111 248.669L136.326 287H335.015L354.501 248.027V172.053L335.868 140.999H304C301.296 140.999 298.886 140.09 297.148 138.352C295.41 136.614 294.501 134.204 294.501 131.5V111H111V248.669ZM373.5 242H384.501V178.5H373.5V242ZM51 242H92V140.999H51V242ZM178.501 91.999H234.501V66H178.501V91.999ZM148.5 46.999H264.5V20.999H148.5V46.999Z" fill="black" stroke="black" stroke-width="4"/>
</svg>
