<svg width="215" height="237" viewBox="0 0 215 237" fill="none" xmlns="http://www.w3.org/2000/svg">
<path d="M165.963 34.765C178.927 43.846 184.416 61.3242 182.518 82.5471C180.623 103.739 171.365 128.446 155.145 151.603C138.924 174.761 118.869 191.904 99.6006 200.927C80.3039 209.963 62.0023 210.777 49.0376 201.696C36.0729 192.615 30.5844 175.137 32.4822 153.914C34.3773 132.723 43.6348 108.016 59.855 84.8588C76.0754 61.7013 96.1313 44.5577 115.4 35.5348C134.697 26.4987 152.998 25.6841 165.963 34.765Z" stroke="black" stroke-width="2"/>
<circle cx="62.2655" cy="85.64" r="25.726" fill="#00057D"/>
<circle cx="106" cy="188.029" r="25.726" fill="#FC7808"/>
<circle cx="157.452" cy="38.8178" r="25.726" fill="#FC7808"/>
</svg>
