<svg width="1332" height="628" viewBox="0 0 1332 628" fill="none" xmlns="http://www.w3.org/2000/svg">
<path d="M508.864 506.35C523.581 457.097 494.637 404.956 444.214 389.889C393.791 374.821 340.985 402.534 326.267 451.786C311.55 501.038 340.494 553.179 390.917 568.247C441.34 583.314 494.146 555.602 508.864 506.35Z" fill="#111111"/>
<path d="M468.751 494.367C477.003 466.755 460.775 437.523 432.507 429.075C404.238 420.628 374.634 436.165 366.382 463.777C358.131 491.389 374.358 520.621 402.627 529.068C430.895 537.516 460.5 521.979 468.751 494.367Z" fill="#B4B3B1"/>
<path d="M460.105 491.759C466.964 468.804 453.474 444.502 429.973 437.479C406.472 430.457 381.86 443.373 375 466.328C368.141 489.284 381.631 513.585 405.132 520.608C428.633 527.631 453.245 514.715 460.105 491.759Z" fill="#373135"/>
<path d="M453.515 483.539C458.739 466.058 448.466 447.553 430.57 442.205C412.675 436.858 393.933 446.693 388.709 464.173C383.486 481.654 393.759 500.159 411.654 505.507C429.55 510.854 448.292 501.019 453.515 483.539Z" fill="#545255"/>
<path d="M433.416 475.653C431.435 482.283 424.327 486.013 417.539 483.985C410.751 481.957 406.855 474.938 408.836 468.308C410.817 461.678 417.925 457.948 424.713 459.976C431.501 462.005 435.398 469.023 433.416 475.653Z" fill="#373135"/>
<path opacity="0.46" d="M460.093 491.349C458.487 462.518 435.955 448.328 408.567 455.897C378.523 464.2 369.679 507.967 405.118 520.199C381.616 513.176 368.125 488.873 374.985 465.917C381.845 442.961 406.458 430.044 429.96 437.067C453.462 444.09 466.953 468.393 460.093 491.349Z" fill="#141414"/>
<path d="M1196.93 506.379C1211.65 457.127 1182.7 404.985 1132.28 389.918C1081.86 374.851 1029.05 402.563 1014.34 451.815C999.617 501.067 1028.56 553.209 1078.98 568.276C1129.41 583.343 1182.21 555.631 1196.93 506.379Z" fill="#111111"/>
<path d="M1156.82 494.398C1165.07 466.786 1148.85 437.554 1120.58 429.107C1092.31 420.659 1062.71 436.196 1054.45 463.808C1046.2 491.42 1062.43 520.652 1090.7 529.1C1118.97 537.547 1148.57 522.01 1156.82 494.398Z" fill="#B4B3B1"/>
<path d="M1148.2 491.83C1155.06 468.874 1141.57 444.572 1118.07 437.55C1094.57 430.527 1069.96 443.443 1063.1 466.399C1056.24 489.354 1069.73 513.656 1093.23 520.678C1116.73 527.701 1141.34 514.785 1148.2 491.83Z" fill="#373135"/>
<path d="M1141.54 483.517C1146.77 466.037 1136.49 447.531 1118.6 442.184C1100.7 436.836 1081.96 446.672 1076.74 464.152C1071.51 481.632 1081.79 500.138 1099.68 505.485C1117.58 510.833 1136.32 500.998 1141.54 483.517Z" fill="#545255"/>
<path d="M1121.49 475.653C1119.51 482.283 1112.4 486.013 1105.61 483.985C1098.83 481.957 1094.93 474.938 1096.91 468.308C1098.89 461.678 1106 457.948 1112.79 459.976C1119.57 462.005 1123.47 469.023 1121.49 475.653Z" fill="#373135"/>
<path opacity="0.46" d="M1148.16 491.349C1146.56 462.518 1124.03 448.328 1096.64 455.897C1066.59 464.2 1057.75 507.967 1093.19 520.199C1069.69 513.176 1056.2 488.873 1063.06 465.917C1069.92 442.961 1094.53 430.044 1118.03 437.067C1141.53 444.09 1155.02 468.393 1148.16 491.349Z" fill="#141414"/>
<path d="M635.134 87.0308C660.686 117.516 630.402 139.962 601.415 146.371C572.428 152.78 552.799 201.618 535.215 193.728C517.631 185.838 437.544 135.277 497.927 87.5648C558.31 39.8538 615.713 63.8608 635.134 87.0308Z" fill="#161616"/>
<path d="M468.308 106.776C473.482 67.3356 510.497 74.4626 534.823 91.4806C559.149 108.498 608.399 89.9266 614.479 108.215C620.559 126.504 637.481 219.692 561.498 207.482C485.515 195.271 464.375 136.751 468.308 106.776Z" fill="#161616"/>
<path d="M733.423 77.9202C758.997 101.031 735.688 123.914 711.575 132.879C687.463 141.844 676.453 186.106 660.418 181.435C644.384 176.764 569.605 142.942 615.727 94.7762C661.85 46.6112 713.986 60.3552 733.423 77.9202Z" fill="#161616"/>
<path d="M1331.22 438.542V470.712L1327.65 475.494V440.637L1250.46 433.149L1256.43 430.766L1329.44 438.542H1331.22Z" fill="#0A0809"/>
<path d="M1287.94 436.785V475.494H1327.65V440.637L1287.94 436.785Z" fill="#161616"/>
<path d="M148.422 409.63V479.057H1241.55L1249.03 449.789L1276.22 451.412L1276.74 440.529L1255.14 440.032L1255.84 369.339L544.56 379.001L84.0996 349.393L148.422 409.63Z" fill="#0A0809"/>
<path d="M148.421 409.629V479.056H1241.55L1249.03 449.788L1294.64 452.51L1287.94 436.784L1250.46 432.552L1241.11 436.147L1097.25 432.552L836.047 375.041L735.82 375.302L376.608 375.925L733.78 397.158L871.952 404.986L962.478 462.258L148.421 409.629Z" fill="#161616"/>
<path d="M58.5757 378.44L722.209 388.65L726.829 86.3145L48.2607 105.105L58.5757 378.44Z" fill="#5278FF"/>
<path opacity="0.3" d="M722.209 94.6095V388.65L726.829 86.3145L48.2607 105.105L722.209 94.6095Z" fill="white"/>
<path d="M58.2283 369.252H45.1293L28.9663 117.648H48.7333L58.2283 369.252Z" fill="#5278FF"/>
<path opacity="0.46" d="M58.2284 369.252H53.7254L48.7334 117.648L58.2284 369.252Z" fill="#1E0400"/>
<path d="M75.9317 361.085L701.79 369.253V112.336L62.6597 120.135L75.9317 361.085Z" fill="#184BFF"/>
<path opacity="0.3" d="M75.9315 361.085L701.789 369.253L84.0995 351.896L69.1265 134.777L75.9315 361.085Z" fill="white"/>
<path opacity="0.46" d="M75.9317 361.085L69.1267 134.777L684.773 133.934L701.79 369.253V112.336L62.6597 120.135L75.9317 361.085Z" fill="#1E0400"/>
<path d="M767.47 376.4L741.607 404.987L752.898 48.6641L781.008 73.2131L767.47 376.4Z" fill="#184BFF"/>
<path d="M722.208 388.651V404.987H741.607L752.898 48.6641L726.828 49.1771V86.3151L722.208 388.651Z" fill="#5278FF"/>
<path d="M800.301 156.889H981.537L1017.27 289.616C1017.27 289.616 1302.23 312.258 1303.48 322.628C1304.27 329.102 1302.92 380.399 1303.46 389.162C1283.92 394.144 1276.6 394.777 1261.28 398.861C1272.51 359.043 1137.74 357.786 1137.74 357.786L1011.14 432.553L814.421 428.824C803.882 428.624 795.289 420.315 794.735 409.789L790.273 239.831C790.118 200.11 790.041 156.889 800.301 156.889Z" fill="#171719"/>
<path d="M863.612 381.262V468.846L861.36 518.023L856.638 447.187L863.612 381.262Z" fill="#141414"/>
<path d="M863.611 381.262L798.276 381.966L770.875 447.187H856.638L863.611 381.262Z" fill="#212020"/>
<path d="M800.301 156.889H981.537L1017.27 289.616C1017.27 289.616 1298.82 300.687 1300.08 311.056C1300.86 317.53 1299.55 408.474 1300.08 417.237C1287.83 424.384 1278.9 429.063 1263.58 433.147C1274.81 393.329 1137.75 357.784 1137.75 357.784L1011.15 432.551L814.423 428.822C803.884 428.622 795.291 420.313 794.737 409.787L790.275 239.829C790.118 200.11 790.041 156.889 800.301 156.889Z" fill="#DBDCE1"/>
<path d="M794.265 164.691L981.537 156.89L1001.96 137.491C1001.96 137.491 973.253 126.941 925.383 124.218C871.527 121.155 842.234 120.661 823.285 124.218C810.271 126.661 801.953 134.415 798.694 147.248L794.265 164.691Z" fill="#DBDCE1"/>
<path d="M1017.27 289.617L1300.08 311.057C1300.08 311.057 1287.83 290.638 1194.92 275.323C1102.01 260.008 1050.96 256.945 1050.96 256.945L1017.27 289.617Z" fill="#DBDCE1"/>
<path d="M1017.27 289.616L981.537 156.889C981.537 156.889 994.81 147.7 1001.96 137.49C1033.61 203.853 1050.96 256.944 1050.96 256.944L1017.27 289.616Z" fill="#DBDCE1"/>
<path d="M860.041 484.436L860.125 524.803C860.125 524.803 993.789 526.142 1004 507.764C1005.68 504.712 1007.4 499.936 1007.4 499.936L1007.24 489.162L860.041 484.436Z" fill="#494949"/>
<path d="M863.611 474.924C867.695 474.924 989.666 476.857 989.666 476.857L1007.24 489.164L860.041 484.438L863.611 474.924Z" fill="#707070"/>
<path d="M863.611 429.756C867.695 429.756 1016.25 431.532 1016.25 431.532L995.809 477.816L863.611 474.923V429.756Z" fill="#494949"/>
<path opacity="0.46" d="M863.611 429.756C867.695 429.756 1016.25 431.532 1016.25 431.532L995.809 477.816H983.918L997.191 444.804L863.611 439.018V429.756Z" fill="#141414"/>
<path d="M981.537 492.79C981.537 492.79 1001.43 432.368 1062.96 359.553C1081.34 352.406 1208.19 339.644 1242.91 350.875C1277.62 362.106 1268.54 409.171 1265.93 426.478C1263.33 443.784 1255.16 464.204 1248.01 461.141C1240.86 458.078 1260.26 409.071 1237.8 399.883C1215.34 390.694 1106.1 391.715 1083.63 402.946C1061.17 414.177 1032.59 489.729 1022.38 497.897C1012.17 506.062 981.537 492.79 981.537 492.79Z" fill="#DBDCE1"/>
<path d="M981.537 492.79C981.537 492.79 1001.43 432.368 1062.96 359.553C1081.34 352.406 1208.19 339.644 1242.91 350.875C1277.62 362.106 1268.54 409.171 1265.93 426.478C1263.33 443.784 1255.16 464.204 1248.01 461.141C1268.95 450.816 1272.92 372.657 1250.46 363.468C1228 354.279 1120.39 353.939 1068.32 367.552C1071.13 385.589 1026.97 450.817 1000.76 484.624C992.743 494.954 981.537 492.79 981.537 492.79Z" fill="#C6C6C6"/>
<path d="M860.041 498.235L770.875 500.551V447.186H856.638L860.041 498.235Z" fill="#302E2E"/>
<path d="M860.041 498.236L770.875 500.552V516.784L860.125 518.006L860.041 498.236Z" fill="#212020"/>
<path opacity="0.46" d="M860.041 498.236L770.875 500.552V510.998L860.093 509.648L860.041 498.236Z" fill="#141414"/>
<path d="M860.04 496.307L767.647 498.848V505.692L860.04 506.332V496.307Z" fill="#212020"/>
<path d="M1289.19 319.274C1271.61 319.895 1254.03 320.281 1236.45 320.489C1227.65 320.568 1218.86 320.546 1210.07 320.673C1201.27 320.764 1192.48 320.976 1183.69 321.199C1166.11 321.636 1148.53 322.058 1130.95 322.292C1122.16 322.446 1113.36 322.503 1104.57 322.564C1095.78 322.635 1086.98 322.705 1078.19 322.677L1078.19 322.577C1086.98 322.266 1095.77 322.052 1104.56 321.84C1113.35 321.617 1122.14 321.39 1130.93 321.261C1148.51 320.927 1166.1 320.782 1183.68 320.652C1192.48 320.591 1201.27 320.52 1210.06 320.327C1218.85 320.171 1227.64 319.865 1236.43 319.66C1254.01 319.301 1271.6 319.12 1289.19 319.173L1289.19 319.274Z" fill="#0F0F0F"/>
<path d="M1250.45 354.3C1243.54 352.208 1236.39 351.087 1229.26 350.112C1222.11 349.161 1214.93 348.538 1207.74 348.055C1193.35 347.1 1178.92 346.946 1164.52 347.622C1157.33 348.006 1150.12 348.554 1142.92 348.988C1135.72 349.442 1128.52 349.921 1121.33 350.494C1114.14 351.04 1106.95 351.715 1099.79 352.527C1092.62 353.345 1085.47 354.281 1078.38 355.608C1074.85 356.285 1071.32 357.055 1067.89 358.109C1066.18 358.624 1064.5 359.254 1062.88 359.994C1062.1 360.406 1061.31 360.812 1060.62 361.335C1059.91 361.837 1059.34 362.464 1058.77 363.172C1054.29 368.787 1050.13 374.703 1045.95 380.572C1037.65 392.365 1029.63 404.359 1021.82 416.483C1014.07 428.642 1006.49 440.919 999.46 453.51C995.955 459.81 992.589 466.19 989.515 472.71C986.462 479.233 983.591 485.87 981.586 492.802L981.489 492.776C983.374 485.802 986.072 479.069 989.067 472.501C992.078 465.934 995.382 459.508 998.825 453.161C1005.72 440.472 1013.17 428.086 1020.95 415.926C1028.72 403.753 1036.81 391.791 1045.19 380.027C1049.39 374.156 1053.6 368.296 1058.18 362.679C1058.75 361.99 1059.41 361.275 1060.18 360.737C1060.94 360.181 1061.76 359.768 1062.58 359.349C1064.25 358.603 1065.96 357.982 1067.71 357.478C1071.19 356.448 1074.73 355.712 1078.29 355.068C1092.52 352.541 1106.93 351.409 1121.31 350.148C1135.7 348.999 1150.07 347.832 1164.48 346.794C1171.69 346.416 1178.92 346.251 1186.14 346.35C1193.37 346.443 1200.59 346.783 1207.79 347.289C1215 347.806 1222.18 348.561 1229.33 349.592C1236.47 350.654 1243.61 351.978 1250.48 354.205L1250.45 354.3Z" fill="#0F0F0F"/>
<path d="M857.229 168.789H962.461C968.819 168.789 974.302 173.257 975.586 179.484L991.466 256.504C993.18 264.818 986.83 272.611 978.341 272.611H860.008C852.795 272.611 846.876 266.902 846.616 259.693L843.837 182.673C843.563 175.087 849.638 168.789 857.229 168.789Z" fill="#0F0F0F"/>
<path d="M860.021 171.184H960.401C966.466 171.184 971.696 175.446 972.921 181.386L988.069 254.855C989.704 262.786 983.647 270.219 975.549 270.219H862.672C855.792 270.219 850.145 264.773 849.897 257.897L847.246 184.428C846.985 177.193 852.78 171.184 860.021 171.184Z" fill="url(#paint0_linear_1104_204)"/>
<path d="M975.548 270.718H862.672C855.487 270.718 849.657 265.093 849.398 257.914L846.747 184.446C846.616 180.809 847.935 177.364 850.461 174.745C852.987 172.126 856.382 170.684 860.021 170.684H960.401C966.672 170.684 972.144 175.142 973.41 181.285L988.558 254.754C989.369 258.682 988.379 262.718 985.846 265.827C983.313 268.935 979.559 270.718 975.548 270.718ZM860.021 171.683C856.656 171.683 853.517 173.016 851.181 175.438C848.845 177.86 847.625 181.046 847.746 184.409L850.397 257.877C850.637 264.517 856.028 269.717 862.672 269.717H975.548C979.257 269.717 982.728 268.068 985.07 265.193C987.412 262.318 988.327 258.586 987.579 254.954L972.431 181.485C971.259 175.805 966.201 171.682 960.401 171.682H860.021V171.683Z" fill="#1A1A1A"/>
<path opacity="0.15" d="M863.021 260.015H963.401C969.466 260.015 988.069 254.854 972.921 181.385L988.069 254.854C989.704 262.785 983.647 270.218 975.549 270.218H862.672C855.792 270.218 850.145 264.772 849.897 257.896L847.246 184.427C849.897 257.896 855.78 260.015 863.021 260.015Z" fill="#021C1B"/>
<path opacity="0.3" d="M862.838 176.661H937.526C959.587 176.661 966.734 174.246 970.556 192.187L985.287 256.946C985.206 256.696 985.124 256.445 985.043 256.192C971.952 215.472 936.841 185.737 894.494 179.713L890.161 179.096C853.349 177.91 850.719 179.789 850.719 179.789C850.481 178.26 856.271 176.661 862.838 176.661Z" fill="white"/>
<path opacity="0.46" d="M860.021 171.182H960.401C966.466 171.182 971.696 175.444 972.921 181.384L988.069 254.853C989.704 262.784 983.514 270.217 975.549 270.217C978.211 269.391 986.765 264.891 985.286 256.944C981.202 234.993 977.837 222.032 974.901 209.724C968.265 181.902 967.499 177.308 955.643 176.755C928.278 175.479 875.869 176.287 862.083 176.287C848.297 176.287 847.246 184.426 847.246 184.426C846.985 177.191 852.78 171.182 860.021 171.182Z" fill="#141414"/>
<path d="M836.047 311.057V302.889H878.418V306.973L836.047 311.057Z" fill="#5E5E5E"/>
<path d="M29.5875 127.307L44.8885 365.509C44.8885 365.509 7.51853 323.15 0.719527 249.118C-5.40547 182.414 29.5875 127.307 29.5875 127.307Z" fill="#184BFF"/>
<path opacity="0.46" d="M29.5873 127.307L44.8883 365.509C44.8883 365.509 37.4193 357.939 30.5683 344.61C28.9663 321.267 28.9663 303.911 28.9663 252.015C28.9663 185.031 29.5873 127.307 29.5873 127.307Z" fill="#1E0400"/>
<path d="M245.414 507.022C245.414 507.022 262.09 390.364 358.062 391.725C454.034 393.086 470.71 464.141 470.71 464.141L488.303 431.603C488.303 431.603 453.864 386.192 385.459 383.47C268.897 378.44 245.414 507.022 245.414 507.022Z" fill="#171719"/>
<path d="M245.414 507.022C245.414 507.022 262.09 390.364 358.062 391.725C454.034 393.086 470.71 464.141 470.71 464.141L448.249 475.712C448.249 475.712 426.468 413.773 358.063 411.05C265.835 413.773 259.028 507.022 259.028 507.022H245.414Z" fill="#333333"/>
<path d="M1225.49 527.883C1240.2 478.63 1211.26 426.489 1160.84 411.422C1110.41 396.354 1057.61 424.067 1042.89 473.319C1028.17 522.571 1057.12 574.713 1107.54 589.78C1157.96 604.847 1210.77 577.135 1225.49 527.883Z" fill="#171719"/>
<path d="M1185.35 515.879C1193.61 488.266 1177.38 459.034 1149.11 450.587C1120.84 442.14 1091.24 457.676 1082.98 485.289C1074.73 512.901 1090.96 542.133 1119.23 550.58C1147.5 559.027 1177.1 543.491 1185.35 515.879Z" fill="#B4B3B1"/>
<path d="M1176.76 513.337C1183.62 490.382 1170.13 466.08 1146.63 459.058C1123.13 452.035 1098.52 464.951 1091.66 487.906C1084.8 510.862 1098.29 535.164 1121.79 542.186C1145.29 549.209 1169.91 536.293 1176.76 513.337Z" fill="#373135"/>
<path d="M1163.34 506.524C1168.84 488.13 1158.03 468.658 1139.2 463.031C1120.37 457.404 1100.65 467.753 1095.15 486.147C1089.65 504.54 1100.46 524.013 1119.29 529.64C1138.12 535.267 1157.85 524.917 1163.34 506.524Z" fill="#545255"/>
<path d="M1286.5 424.748C1287.41 415.007 1287.83 405.238 1288.45 395.475L1288.95 388.153C1289.12 385.713 1289.26 383.27 1289.36 380.826C1289.62 375.94 1289.69 371.047 1289.76 366.155L1289.97 336.81C1289.95 327.032 1290.07 317.251 1289.41 307.489L1289.51 307.477C1290.18 312.331 1290.51 317.23 1290.71 322.122C1290.9 327.017 1291.01 331.914 1291 336.81C1291.04 341.707 1290.94 346.602 1290.83 351.495C1290.73 356.389 1290.53 361.281 1290.31 366.17C1290.08 371.059 1289.86 375.948 1289.71 380.839L1289.28 395.517C1289.08 400.408 1288.74 405.293 1288.35 410.174C1287.92 415.05 1287.44 419.932 1286.6 424.761L1286.5 424.748Z" fill="#0F0F0F"/>
<path d="M1082.1 389.162V376.4L1228.1 371.805V385.588L1082.1 389.162Z" fill="#5278FF"/>
<path d="M1016.25 369.801H794.774V382.053H1016.25V369.801Z" fill="#5278FF"/>
<path d="M794.267 283.9C815.192 284.082 836.109 284.456 857.024 284.878L888.395 285.59C898.852 285.814 909.307 286.176 919.764 286.462L951.133 287.556L966.819 288.113L982.505 288.589L998.191 289.038C1003.42 289.13 1008.65 289.431 1013.87 289.035C1024.32 288.583 1034.77 288.008 1045.22 287.497L1060.89 286.716L1068.73 286.325C1071.34 286.212 1073.95 286.01 1076.59 286.033C1087.06 285.956 1097.53 286.041 1107.99 286.267C1128.92 286.713 1149.85 287.562 1170.74 289.082C1191.63 290.548 1212.48 292.672 1233.21 295.625C1253.92 298.649 1274.6 302.417 1294.66 308.455L1294.61 308.647L1279.37 304.94L1263.99 301.905C1262.71 301.633 1261.42 301.412 1260.13 301.216L1256.26 300.593L1248.52 299.347L1244.65 298.724L1240.77 298.214L1233 297.176C1230.41 296.841 1227.83 296.448 1225.23 296.16L1217.44 295.302L1209.65 294.444C1207.05 294.148 1204.44 293.96 1201.84 293.712L1194.04 293.004C1191.44 292.749 1188.83 292.513 1186.23 292.328L1170.59 291.14L1154.95 290.164L1139.29 289.353L1123.62 288.666L1107.95 288.149C1097.5 287.888 1087.04 287.645 1076.59 287.57C1074 287.51 1071.38 287.675 1068.77 287.751L1060.92 288.031L1045.24 288.592C1034.79 288.976 1024.33 289.295 1013.88 289.738C1008.65 290.105 1003.42 289.775 998.195 289.655L982.508 289.281L966.82 288.935L951.132 288.67L919.754 288.119C909.295 287.857 898.835 287.67 888.376 287.346L857 286.413C836.084 285.738 815.169 285.015 794.263 284.101L794.267 283.9Z" fill="white"/>
<path d="M836.084 156.924C834.495 158.587 833.478 160.708 832.835 162.899C832.209 165.105 831.904 167.387 831.682 169.668C831.297 174.242 831.288 178.841 831.268 183.434C831.26 188.029 831.266 192.626 831.206 197.223L831.047 211.007C830.944 229.387 831.038 247.771 831.113 266.153L831.366 321.303C831.555 339.698 830.682 358.079 830.312 376.449C830.153 385.63 829.973 394.833 830.609 403.978C830.793 406.259 831.023 408.542 831.482 410.768C832.002 412.929 832.486 415.395 834.769 416.119C836.799 417.085 839.044 417.605 841.292 417.968C843.547 418.321 845.825 418.571 848.114 418.713C857.269 419.302 866.474 419.243 875.662 419.509C884.846 419.713 894.04 419.739 903.23 419.785L930.804 419.851L958.379 419.773L1013.53 419.512L1013.27 419.727L1018.96 387.478C1019.42 384.792 1019.95 382.1 1020.35 379.419C1020.74 376.733 1020.9 374.025 1020.85 371.312C1020.79 368.598 1020.58 365.879 1020.41 363.154C1020.23 360.429 1020.09 357.698 1019.98 354.967C1019.79 349.503 1019.79 344.035 1019.91 338.572C1020.02 333.122 1019.99 327.672 1019.8 322.225C1019.42 311.34 1018.52 300.44 1016.82 289.696L1016.83 289.736L981.059 157.019L981.536 157.387L805.931 155.974H805.927H805.921C804.73 155.877 803.515 155.936 802.328 156.109C801.142 156.292 799.966 156.596 798.885 157.122C797.81 157.654 796.849 158.413 796.133 159.373C795.382 160.327 795.065 161.52 794.826 162.689L794.727 162.675C794.959 161.491 795.272 160.276 796.03 159.297C796.752 158.313 797.728 157.53 798.817 156.981C799.912 156.438 801.102 156.121 802.301 155.927C803.504 155.744 804.722 155.674 805.943 155.763L805.933 155.762L981.543 156.391L981.922 156.392L982.021 156.759L1017.72 289.495L1017.72 289.517L1017.73 289.535C1018.61 294.95 1019.21 300.377 1019.71 305.824C1020.19 311.269 1020.53 316.727 1020.7 322.191C1020.87 327.655 1020.88 333.124 1020.75 338.588C1020.61 344.038 1020.59 349.491 1020.76 354.937C1020.85 357.66 1020.98 360.382 1021.15 363.103C1021.31 365.825 1021.51 368.551 1021.56 371.296C1021.6 374.041 1021.42 376.797 1021.02 379.511C1020.61 382.228 1020.07 384.892 1019.6 387.584L1013.79 419.815L1013.75 420.03H1013.53L903.232 420.181C894.04 420.167 884.849 420.173 875.653 420.001C866.467 419.767 857.273 419.86 848.076 419.3C845.777 419.164 843.48 418.922 841.195 418.572C838.916 418.209 836.626 417.695 834.493 416.689C833.976 416.375 833.464 416.171 832.944 415.764C832.449 415.334 832.142 414.793 831.884 414.255C831.376 413.17 831.088 412.033 830.838 410.898C830.361 408.622 830.123 406.322 829.931 404.025C829.262 394.826 829.415 385.62 829.544 376.428C829.892 358.041 830.589 339.674 830.515 321.298L830.437 266.149C830.419 247.765 830.384 229.382 830.545 210.997C830.589 206.402 830.664 201.802 830.771 197.209C830.869 192.616 830.9 188.021 830.945 183.425C831.002 178.83 831.049 174.226 831.473 169.641C831.715 167.354 832.039 165.065 832.688 162.848C833.353 160.647 834.398 158.513 836.015 156.849L836.084 156.924Z" fill="#0F0F0F"/>
<path d="M1005.91 145.865C1005.91 145.865 1014.21 160.208 1031.69 203.089C1048.16 243.472 1050.96 256.945 1050.96 256.945C1050.96 256.945 1036.43 268.134 1034.15 269.368C1028.16 272.612 1025.25 267.475 1021.96 256.945C1018.01 244.335 1003.37 191.614 997.245 171.183C995.715 166.08 994.051 154.863 1000.42 149.771C1002.2 148.346 1005.91 145.865 1005.91 145.865Z" fill="url(#paint1_linear_1104_204)"/>
<path d="M1030.89 270.834C1030.26 270.834 1029.66 270.716 1029.08 270.48C1025.84 269.164 1023.7 264.177 1021.48 257.094C1019.45 250.597 1014.62 233.601 1009.51 215.607C1004.7 198.711 999.739 181.239 996.768 171.327C996.29 169.736 992.331 155.599 1000.11 149.381C1001.89 147.959 1005.48 145.551 1005.63 145.449L1006.07 145.152L1006.34 145.614C1006.42 145.757 1014.86 160.477 1032.15 202.899C1048.45 242.862 1051.42 256.707 1051.45 256.842L1051.51 257.149L1051.27 257.34C1050.67 257.798 1036.68 268.569 1034.39 269.807C1033.13 270.493 1031.97 270.834 1030.89 270.834ZM1005.74 146.584C1004.7 147.288 1002.11 149.059 1000.73 150.163C994.834 154.88 996.067 165.506 997.725 171.041C1000.7 180.96 1005.66 198.435 1010.47 215.335C1015.58 233.323 1020.41 250.313 1022.44 256.797C1024.57 263.61 1026.57 268.387 1029.45 269.555C1030.72 270.072 1032.18 269.867 1033.92 268.929C1035.97 267.817 1048.46 258.24 1050.4 256.745C1049.88 254.53 1046.17 239.923 1031.23 203.279C1015.65 165.066 1007.28 149.383 1005.74 146.584Z" fill="#1A1A1A"/>
<path opacity="0.3" d="M1005.91 145.865C1005.91 145.865 1014.21 160.208 1031.69 203.089C1048.16 243.472 1050.96 256.945 1050.96 256.945C1050.96 256.945 1043.86 262.832 1041.59 264.066C1035.59 267.31 1045.29 244.353 1027.48 211.001C1021.26 199.345 1014.49 192.744 1002.23 172.768C999.45 168.227 994.053 154.863 1000.42 149.771C1002.2 148.346 1005.91 145.865 1005.91 145.865Z" fill="white"/>
<path d="M1005.94 145.906C1003.2 147.786 1000.24 149.539 998.372 152.302C996.482 155.04 995.99 158.463 996.101 161.744C996.211 165.055 996.854 168.336 997.667 171.557C998.477 174.788 999.511 177.943 1000.55 181.127C1002.61 187.49 1004.58 193.884 1006.37 200.327C1008.17 206.768 1009.85 213.238 1011.53 219.703C1013.23 226.166 1015.01 232.598 1017.06 238.962C1019.03 245.354 1020.59 251.863 1022.54 258.244C1023.04 259.837 1023.56 261.421 1024.17 262.967C1024.78 264.507 1025.47 266.032 1026.41 267.377C1027.32 268.705 1028.64 269.878 1030.24 269.974C1031.83 270.059 1033.42 269.421 1034.89 268.719C1037.85 267.25 1040.55 265.271 1043.16 263.216C1045.76 261.142 1048.27 258.933 1050.66 256.629L1050.93 256.362L1051.24 256.601C1054.84 259.432 1058.45 262.268 1061.94 265.267C1065.42 268.266 1068.8 271.423 1071.79 274.964C1074.71 278.511 1077.38 282.512 1078.38 287.168C1078.61 288.32 1078.72 289.527 1078.75 290.664C1078.8 291.816 1078.83 292.965 1078.85 294.112C1078.91 296.409 1078.92 298.701 1078.95 300.995C1078.97 310.168 1078.87 319.337 1078.76 328.505L1078.56 342.257L1078.24 356.007L1078.14 356.006L1078.12 328.502C1078.11 319.335 1078.07 310.167 1077.95 301.005C1077.92 298.715 1077.9 296.424 1077.84 294.138C1077.81 292.993 1077.78 291.851 1077.72 290.714C1077.69 289.559 1077.59 288.477 1077.37 287.382C1076.43 283.001 1073.84 279.121 1070.98 275.642C1068.07 272.153 1064.75 269.004 1061.3 266.005C1057.86 263.001 1054.27 260.162 1050.69 257.293L1051.27 257.264C1048.82 259.565 1046.27 261.74 1043.62 263.796C1040.95 265.83 1038.2 267.788 1035.14 269.249C1033.61 269.94 1031.98 270.599 1030.2 270.496C1029.31 270.427 1028.46 270.068 1027.77 269.541C1027.07 269.014 1026.5 268.351 1026.02 267.652C1025.06 266.243 1024.38 264.689 1023.77 263.126C1023.17 261.557 1022.66 259.961 1022.18 258.358C1021.22 255.151 1020.39 251.913 1019.51 248.691C1018.62 245.472 1017.7 242.26 1016.7 239.076C1014.62 232.729 1012.66 226.325 1010.88 219.884C1007.27 207.008 1003.88 194.093 999.802 181.372C998.791 178.198 997.74 174.997 996.987 171.728C996.216 168.465 995.612 165.138 995.55 161.761C995.522 160.076 995.643 158.377 996.019 156.722C996.413 155.076 997.08 153.473 998.084 152.105C1000.08 149.31 1003.11 147.638 1005.88 145.828L1005.94 145.906Z" fill="#0F0F0F"/>
<path d="M1068.32 367.55C1078.96 365.331 1089.67 363.407 1100.44 361.877C1111.21 360.369 1122.03 359.225 1132.87 358.384C1143.71 357.536 1154.58 356.979 1165.45 356.667C1176.32 356.352 1187.19 356.204 1198.07 356.312C1208.95 356.501 1219.84 356.922 1230.66 358.285C1236.06 358.989 1241.45 359.928 1246.67 361.624C1249.26 362.494 1251.82 363.582 1254.09 365.19C1255.21 366 1256.27 366.942 1257.05 368.124C1257.87 369.305 1258.29 370.623 1258.82 371.867C1262.83 381.991 1265.57 392.671 1266.36 403.551C1266.72 408.985 1266.65 414.455 1265.98 419.861C1265.3 425.263 1264.07 430.581 1262.39 435.749C1264 430.555 1265.14 425.228 1265.74 419.833C1266.32 414.435 1266.31 408.988 1265.87 403.589C1265.02 392.773 1262.25 382.165 1258.2 372.115C1257.67 370.866 1257.23 369.565 1256.49 368.513C1255.76 367.422 1254.75 366.534 1253.67 365.764C1251.49 364.233 1248.99 363.176 1246.43 362.335C1241.29 360.691 1235.92 359.783 1230.55 359.111C1219.79 357.809 1208.91 357.45 1198.06 357.309C1187.2 357.145 1176.33 357.237 1165.47 357.496C1154.61 357.753 1143.75 358.253 1132.92 359.044C1122.08 359.825 1111.27 360.925 1100.5 362.358C1089.72 363.727 1078.99 365.49 1068.32 367.55Z" fill="white"/>
<path d="M538.356 22.4615V41.5195L636.71 41.5195V22.4615L538.356 22.4615Z" fill="#184BFF"/>
<path d="M587.533 52.1543L620.034 94.2693H554.691L587.533 52.1543Z" fill="#184BFF"/>
<path d="M568.474 90.5273H549.417V520.698H568.474V90.5273Z" fill="#5278FF"/>
<path d="M625.65 90.5273H606.592V520.698H625.65V90.5273Z" fill="#5278FF"/>
<path d="M591.787 68.0645H583.279V457.396H591.787V68.0645Z" fill="#C9C9C9"/>
<path d="M597.063 340.664H578.005V457.395H597.063V340.664Z" fill="#5278FF"/>
<path d="M597.063 31.9902H578.005V68.0642H597.063V31.9902Z" fill="#5278FF"/>
<path d="M650.324 88.4316L631.265 88.9596V2.97656H650.324V88.4316Z" fill="#184BFF"/>
<path d="M659.853 -0.000488281V19.3125L691.325 19.3125V-0.000488281L659.853 -0.000488281Z" fill="#9D939E"/>
<path d="M484.083 -0.000488281V19.3125L515.555 19.3125V-0.000488281L484.083 -0.000488281Z" fill="#9D939E"/>
<path d="M631.265 2.97797V16.3359L688.44 16.3359V2.97797L631.265 2.97797Z" fill="#184BFF"/>
<path d="M486.967 2.97791V16.3359L544.142 16.3359V2.97791L486.967 2.97791Z" fill="#184BFF"/>
<path d="M544.141 91.3726L525.083 91.8996V2.97656H544.141V91.3726Z" fill="#184BFF"/>
<path d="M597.063 152.635H578.005V254.562H597.063V152.635Z" fill="#5278FF"/>
<path d="M645.049 88.5776L636.54 88.8136V2.97656H645.049V88.5776Z" fill="#5278FF"/>
<path d="M538.866 91.5186L530.358 91.7536V2.97656H538.866V91.5186Z" fill="#5278FF"/>
<path d="M575.219 555.622C562.834 555.622 552.074 551.282 543.197 542.697C529.176 529.137 520.77 504.74 521.26 479.027L524.259 479.085C523.785 503.992 531.841 527.541 545.282 540.541C554.214 549.179 565.2 553.22 577.926 552.551C584.43 552.21 589.038 550.17 592.011 546.316C599.71 536.336 595.346 515.261 591.125 494.881C588.393 481.688 585.568 468.045 586.035 457.332L589.032 457.463C588.581 467.803 591.368 481.259 594.063 494.273C598.421 515.317 602.927 537.078 594.386 548.149C590.895 552.674 585.41 555.163 578.083 555.548C577.12 555.597 576.164 555.622 575.219 555.622Z" fill="#8D7F8E"/>
<path d="M593.213 516.916C591.716 516.916 590.263 516.623 588.875 516.028C583.231 513.613 576.503 505.237 576.503 479.055H579.503C579.503 504.895 586.114 511.583 590.055 513.27C593.916 514.923 598.656 513.333 603.407 508.799C613.854 498.831 624.269 473.288 614.714 447.711C591.512 385.606 591.209 317.769 590.964 263.261C590.951 260.331 590.938 257.433 590.922 254.57L593.922 254.553C593.938 257.417 593.951 260.316 593.964 263.247C594.207 317.517 594.509 385.056 617.524 446.66C626.629 471.032 618.549 498.496 605.478 510.969C601.369 514.892 597.143 516.915 593.213 516.916Z" fill="#8D7F8E"/>
<path d="M199.206 505.684C198.369 505.684 197.508 505.559 196.624 505.308C189.111 503.177 190.455 495.362 192.489 483.533C193.845 475.647 195.533 465.832 195.533 453.934H198.533C198.533 466.088 196.821 476.042 195.446 484.041C193.421 495.819 192.724 501.083 197.443 502.422C199.323 502.955 200.969 502.658 202.478 501.519C207.704 497.569 209.874 484.901 209.874 478.997H212.874C212.874 482.889 211.416 498.524 204.287 503.912C202.726 505.092 201.024 505.684 199.206 505.684Z" fill="#8D7F8E"/>
<path d="M228.058 453.994H168.16L164.076 396.252H230.78L228.058 453.994Z" fill="#373135"/>
<path d="M228.058 453.993L230.78 451.61L238.267 415.438V391.713L168.841 393.415L164.076 396.251H230.78L228.058 453.993Z" fill="#171719"/>
<path d="M172.478 426.146L160.934 387.586L160.672 355.986H165.383L167.416 385.946L180.394 424.624C180.971 426.537 179.027 428.356 176.406 428.356C174.585 428.356 172.983 427.455 172.478 426.146Z" fill="#171719"/>
<path d="M186.25 425.759L178.409 386.28L180.258 348.744L184.155 349.393L185.018 385.262L194.275 424.995C194.668 426.954 192.561 428.581 189.951 428.332C188.139 428.158 186.63 427.109 186.25 425.759Z" fill="#171719"/>
<path d="M201.844 425.745L190.889 387.014L191.048 336.07H194.799L197.396 385.473L209.783 424.344C210.331 426.265 208.359 428.055 205.738 428.015C203.917 427.987 202.329 427.061 201.844 425.745Z" fill="#171719"/>
<path d="M215.905 425.057L211.373 385.063L216.336 347.81L222.126 347.736L218.044 384.597L223.966 424.962C224.195 426.947 221.959 428.393 219.38 427.928C217.587 427.605 216.171 426.435 215.905 425.057Z" fill="#171719"/>
<path d="M192.961 344.288C196.603 344.288 199.556 341.335 199.556 337.693C199.556 334.05 196.603 331.098 192.961 331.098C189.318 331.098 186.366 334.05 186.366 337.693C186.366 341.335 189.318 344.288 192.961 344.288Z" fill="#373135"/>
<path d="M219.397 354.415C223.039 354.415 225.992 351.462 225.992 347.82C225.992 344.177 223.039 341.225 219.397 341.225C215.754 341.225 212.802 344.177 212.802 347.82C212.802 351.462 215.754 354.415 219.397 354.415Z" fill="#373135"/>
<path d="M183.152 355.034C186.794 355.034 189.747 352.081 189.747 348.439C189.747 344.796 186.794 341.844 183.152 341.844C179.509 341.844 176.557 344.796 176.557 348.439C176.557 352.081 179.509 355.034 183.152 355.034Z" fill="#373135"/>
<path d="M162.97 361.628C166.612 361.628 169.565 358.675 169.565 355.033C169.565 351.39 166.612 348.438 162.97 348.438C159.327 348.438 156.375 351.39 156.375 355.033C156.375 358.675 159.327 361.628 162.97 361.628Z" fill="#373135"/>
<path d="M1141.59 498.448C1139.61 505.078 1132.5 508.808 1125.71 506.78C1118.92 504.752 1115.03 497.733 1117.01 491.103C1118.99 484.473 1126.1 480.743 1132.89 482.771C1139.67 484.799 1143.57 491.818 1141.59 498.448Z" fill="#373135"/>
<path opacity="0.46" d="M1176.77 513.267C1175.16 484.436 1152.63 470.246 1125.24 477.815C1095.2 486.118 1086.36 529.885 1121.8 542.117C1098.29 535.094 1084.8 510.791 1091.66 487.835C1098.52 464.879 1123.14 451.962 1146.64 458.985C1170.14 466.008 1183.63 490.311 1176.77 513.267Z" fill="#141414"/>
<path d="M449.331 538.291C464.049 489.039 435.104 436.897 384.681 421.83C334.259 406.763 281.452 434.475 266.734 483.727C252.017 532.979 280.962 585.121 331.384 600.188C381.807 615.255 434.613 587.543 449.331 538.291Z" fill="#171719"/>
<path d="M409.229 526.33C417.48 498.717 401.252 469.485 372.984 461.038C344.716 452.591 315.111 468.127 306.859 495.74C298.608 523.352 314.836 552.584 343.104 561.031C371.372 569.479 400.977 553.942 409.229 526.33Z" fill="#B4B3B1"/>
<path d="M400.588 523.732C407.447 500.776 393.957 476.475 370.456 469.452C346.955 462.43 322.343 475.346 315.484 498.301C308.624 521.256 322.115 545.558 345.616 552.581C369.116 559.603 393.728 546.687 400.588 523.732Z" fill="#373135"/>
<path d="M394.006 515.485C399.231 498.005 388.96 479.498 371.064 474.148C353.169 468.799 334.425 478.633 329.2 496.113C323.975 513.593 334.246 532.1 352.142 537.45C370.037 542.799 388.781 532.965 394.006 515.485Z" fill="#545255"/>
<path d="M373.933 507.589C375.914 500.959 372.018 493.94 365.23 491.912C358.442 489.884 351.333 493.614 349.352 500.245C347.371 506.875 351.267 513.894 358.056 515.922C364.844 517.951 371.952 514.22 373.933 507.589Z" fill="#373135"/>
<path opacity="0.46" d="M400.559 523.291C398.953 494.46 376.421 480.27 349.033 487.839C318.989 496.142 310.145 539.909 345.584 552.141C322.082 545.118 308.591 520.815 315.451 497.859C322.311 474.903 346.924 461.986 370.426 469.009C393.928 476.031 407.419 500.334 400.559 523.291Z" fill="#141414"/>
<defs>
<linearGradient id="paint0_linear_1104_204" x1="917.787" y1="171.184" x2="917.787" y2="270.219" gradientUnits="userSpaceOnUse">
<stop stop-color="#7DCDFF"/>
<stop offset="0.1457" stop-color="#73C5FA"/>
<stop offset="0.3917" stop-color="#59AFEB"/>
<stop offset="0.7056" stop-color="#2E8BD4"/>
<stop offset="1" stop-color="#0064BB"/>
</linearGradient>
<linearGradient id="paint1_linear_1104_204" x1="995.844" y1="208.099" x2="1050.96" y2="208.099" gradientUnits="userSpaceOnUse">
<stop stop-color="#7DCDFF"/>
<stop offset="0.1457" stop-color="#73C5FA"/>
<stop offset="0.3917" stop-color="#59AFEB"/>
<stop offset="0.7056" stop-color="#2E8BD4"/>
<stop offset="1" stop-color="#0064BB"/>
</linearGradient>
</defs>
</svg>
