<svg width="362" height="160" viewBox="0 0 362 160" fill="none" xmlns="http://www.w3.org/2000/svg">
<path d="M252.909 117.108H11.3115V124.073H252.909V117.108Z" fill="#476B9E"/>
<path d="M166.985 132.53H101.579C99.5388 132.53 97.8848 130.876 97.8848 128.836V113.126C97.8848 111.086 99.5388 109.432 101.579 109.432H166.985C169.025 109.432 170.679 111.086 170.679 113.126V128.836C170.679 130.877 169.025 132.53 166.985 132.53Z" fill="#162E4C"/>
<path d="M97.8858 127.49H93.2298C90.8788 127.49 88.9668 125.578 88.9668 123.227V118.85H89.9668V123.227C89.9668 125.026 91.4308 126.49 93.2298 126.49H97.8858V127.49Z" fill="#162E4C"/>
<path d="M170.679 127.65V126.65C172.102 126.65 173.26 125.492 173.26 124.069V118.85H174.26V124.069C174.26 126.043 172.653 127.65 170.679 127.65Z" fill="#162E4C"/>
<path d="M257.966 118.85H4.90889C2.79889 118.85 1.08789 117.139 1.08789 115.029V4.9079C1.08789 2.7979 2.79889 1.08691 4.90889 1.08691H257.966C260.076 1.08691 261.787 2.7979 261.787 4.9079V115.03C261.787 117.139 260.076 118.85 257.966 118.85Z" fill="white"/>
<path d="M258.847 102.942H4.38086V103.942H258.847V102.942Z" fill="#486C9E"/>
<path d="M4.88086 4.37891H3.88086V103.442H4.88086V4.37891Z" fill="#000815"/>
<path d="M11.5771 4.37891H10.5771V103.442H11.5771V4.37891Z" fill="#000815"/>
<path d="M18.2725 4.37891H17.2725V103.442H18.2725V4.37891Z" fill="#000815"/>
<path d="M24.9697 4.37891H23.9697V103.442H24.9697V4.37891Z" fill="#000815"/>
<path d="M31.666 4.37891H30.666V103.442H31.666V4.37891Z" fill="#000815"/>
<path d="M38.3623 4.37891H37.3623V103.442H38.3623V4.37891Z" fill="#000815"/>
<path d="M45.0586 4.37891H44.0586V103.442H45.0586V4.37891Z" fill="#000815"/>
<path d="M51.7559 4.37891H50.7559V103.442H51.7559V4.37891Z" fill="#000815"/>
<path d="M58.4521 4.37891H57.4521V103.442H58.4521V4.37891Z" fill="#000815"/>
<path d="M65.1475 4.37891H64.1475V103.442H65.1475V4.37891Z" fill="#000815"/>
<path d="M71.8447 4.37891H70.8447V103.442H71.8447V4.37891Z" fill="#000815"/>
<path d="M78.542 4.37891H77.542V103.442H78.542V4.37891Z" fill="#000815"/>
<path d="M85.2383 4.37891H84.2383V103.442H85.2383V4.37891Z" fill="#000815"/>
<path d="M91.9336 4.37891H90.9336V103.442H91.9336V4.37891Z" fill="#000815"/>
<path d="M98.6309 4.37891H97.6309V103.442H98.6309V4.37891Z" fill="#000815"/>
<path d="M105.327 4.37891H104.327V103.442H105.327V4.37891Z" fill="#000815"/>
<path d="M112.023 4.37891H111.023V103.442H112.023V4.37891Z" fill="#000815"/>
<path d="M118.72 4.37891H117.72V103.442H118.72V4.37891Z" fill="#000815"/>
<path d="M125.417 4.37891H124.417V103.442H125.417V4.37891Z" fill="#000815"/>
<path d="M132.113 4.37891H131.113V103.442H132.113V4.37891Z" fill="#000815"/>
<path d="M138.809 4.37891H137.809V103.442H138.809V4.37891Z" fill="#000815"/>
<path d="M145.507 4.37891H144.507V103.442H145.507V4.37891Z" fill="#000815"/>
<path d="M152.203 4.37891H151.203V103.442H152.203V4.37891Z" fill="#000815"/>
<path d="M158.898 4.37891H157.898V103.442H158.898V4.37891Z" fill="#000815"/>
<path d="M165.595 4.37891H164.595V103.442H165.595V4.37891Z" fill="#000815"/>
<path d="M172.292 4.37891H171.292V103.442H172.292V4.37891Z" fill="#000815"/>
<path d="M178.988 4.37891H177.988V103.442H178.988V4.37891Z" fill="#000815"/>
<path d="M185.685 4.37891H184.685V103.442H185.685V4.37891Z" fill="#000815"/>
<path d="M192.382 4.37891H191.382V103.442H192.382V4.37891Z" fill="#000815"/>
<path d="M199.078 4.37891H198.078V103.442H199.078V4.37891Z" fill="#000815"/>
<path d="M205.773 4.37891H204.773V103.442H205.773V4.37891Z" fill="#000815"/>
<path d="M212.471 4.37891H211.471V103.442H212.471V4.37891Z" fill="#000815"/>
<path d="M219.168 4.37891H218.168V103.442H219.168V4.37891Z" fill="#000815"/>
<path d="M225.864 4.37891H224.864V103.442H225.864V4.37891Z" fill="#000815"/>
<path d="M232.56 4.37891H231.56V103.442H232.56V4.37891Z" fill="#000815"/>
<path d="M239.257 4.37891H238.257V103.442H239.257V4.37891Z" fill="#000815"/>
<path d="M245.953 4.37891H244.953V103.442H245.953V4.37891Z" fill="#000815"/>
<path d="M252.649 4.37891H251.649V103.442H252.649V4.37891Z" fill="#000815"/>
<path d="M259.346 4.37891H258.346V103.442H259.346V4.37891Z" fill="#000815"/>
<path d="M252.206 3.87891H11.0137V4.87891H252.206V3.87891Z" fill="#486C9E"/>
<path d="M252.206 115.352H11.0137V116.352H252.206V115.352Z" fill="#486C9E"/>
<path d="M4.88086 11.0127H3.88086V109.235H4.88086V11.0127Z" fill="#486C9E"/>
<path d="M259.346 11.0127H258.346V109.235H259.346V11.0127Z" fill="#486C9E"/>
<path d="M0.500977 3.79602V11.013H4.37997V4.90402C4.37997 4.61502 4.61598 4.37903 4.90498 4.37903H11.014V0.499023H3.79697C1.97897 0.500023 0.500977 1.97802 0.500977 3.79602Z" fill="#FFB800"/>
<path d="M4.88097 11.513H0.000976562V3.79599C0.000976562 1.70299 1.70397 0 3.79697 0H11.515V4.879H4.90598L4.88097 11.513ZM1.00098 10.513H3.88097V4.905C3.88097 4.34 4.34098 3.88 4.90498 3.88H10.514V1.00101H3.79597C2.25397 1.00101 0.999977 2.255 0.999977 3.797L1.00098 10.513Z" fill="#162E4C"/>
<path d="M259.424 0.5H252.207V4.38H258.316C258.606 4.38 258.841 4.616 258.841 4.905V11.014H262.72V3.797C262.72 1.978 261.241 0.5 259.424 0.5Z" fill="#FFB800"/>
<path d="M263.22 11.513H258.341V4.90497L251.707 4.87997V0.000976562H259.424C261.517 0.000976562 263.22 1.70397 263.22 3.79697V11.513ZM259.341 10.513H262.22V3.79596C262.22 2.25396 260.966 0.999969 259.424 0.999969H252.707V3.87897H258.315C258.88 3.87897 259.34 4.33896 259.34 4.90396L259.341 10.513Z" fill="#162E4C"/>
<path d="M4.37997 115.344V109.235H0.500977V116.452C0.500977 118.27 1.97997 119.748 3.79697 119.748H11.014V115.869H4.90498C4.61598 115.869 4.37997 115.633 4.37997 115.344Z" fill="#FFB800"/>
<path d="M11.514 120.248H3.796C1.703 120.248 0 118.545 0 116.452V108.735H4.88V115.344C4.88 115.357 4.892 115.369 4.904 115.369H11.513L11.514 120.248ZM1.001 109.735V116.452C1.001 117.994 2.255 119.248 3.797 119.248H10.515V116.368H4.906C4.341 116.368 3.882 115.908 3.882 115.343V109.734H1.001V109.735Z" fill="#162E4C"/>
<path d="M258.841 115.344C258.841 115.633 258.606 115.869 258.316 115.869H252.207V119.748H259.424C261.241 119.748 262.72 118.269 262.72 116.452V109.235H258.841V115.344Z" fill="#FFB800"/>
<path d="M259.424 120.248H251.707V115.368L258.341 115.343V108.734H263.22V116.451C263.22 118.545 261.516 120.248 259.424 120.248ZM252.707 119.248H259.424C260.966 119.248 262.22 117.994 262.22 116.452V109.735H259.341V115.344C259.341 115.909 258.881 116.369 258.316 116.369H252.708V119.248H252.707Z" fill="#162E4C"/>
<path d="M13.3178 112.007H6.30176V113.885H13.3178V112.007Z" fill="#FFB800"/>
<path d="M21.3344 112.007H14.3184V113.885H21.3344V112.007Z" fill="#FFB800"/>
<path d="M14.3184 112.007H13.3164V113.885H14.3184V112.007Z" fill="white"/>
<path d="M72.1732 112.007H65.1572V113.885H72.1732V112.007Z" fill="#FFB800"/>
<path d="M80.1908 112.007H73.1748V113.885H80.1908V112.007Z" fill="#FFB800"/>
<path d="M73.1749 112.007H72.1729V113.885H73.1749V112.007Z" fill="white"/>
<path d="M131.029 112.007H124.013V113.885H131.029V112.007Z" fill="#FFB800"/>
<path d="M139.046 112.007H132.03V113.885H139.046V112.007Z" fill="#FFB800"/>
<path d="M132.029 112.007H131.027V113.885H132.029V112.007Z" fill="white"/>
<path d="M189.884 112.007H182.868V113.885H189.884V112.007Z" fill="#FFB800"/>
<path d="M197.902 112.007H190.886V113.885H197.902V112.007Z" fill="#FFB800"/>
<path d="M190.886 112.007H189.884V113.885H190.886V112.007Z" fill="white"/>
<path d="M248.74 112.007H241.724V113.885H248.74V112.007Z" fill="#FFB800"/>
<path d="M256.757 112.007H249.741V113.885H256.757V112.007Z" fill="#FFB800"/>
<path d="M249.741 112.007H248.739V113.885H249.741V112.007Z" fill="white"/>
<path d="M346.639 60.1797H311.911C309.751 60.1797 308 61.9307 308 64.0907V81.8257C308 83.9857 309.751 85.7367 311.911 85.7367H334.962C335.999 85.7367 336.994 86.1487 337.728 86.8827L340.027 89.1817C340.761 89.9157 341.755 90.3277 342.793 90.3277H351.969C354.497 90.3277 356.361 87.9667 355.774 85.5077L350.444 63.1827C350.023 61.4217 348.449 60.1797 346.639 60.1797Z" fill="white"/>
<path d="M319.527 56.5273L335.289 91.7223H346.974L331.211 56.5273H319.527Z" fill="#D9EBFF"/>
<path d="M340.662 56.5273H337.523L353.286 91.7223H356.424L340.662 56.5273Z" fill="#D9EBFF"/>
<path d="M360.554 82.9725L352.856 53.6585C351.03 46.7735 346.075 43.8525 338.564 43.5915L273.528 41.3285C271.386 41.2535 269.61 42.9695 269.61 45.1125V140.555H359.115V107.46H361.149V87.5865C361.149 86.0295 360.949 84.4785 360.554 82.9725ZM351.969 90.3265H342.793C341.756 90.3265 340.761 89.9145 340.027 89.1805L337.728 86.8815C336.995 86.1475 336 85.7355 334.962 85.7355H311.911C309.751 85.7355 308 83.9845 308 81.8245V64.0895C308 61.9295 309.751 60.1785 311.911 60.1785H346.639C348.449 60.1785 350.023 61.4205 350.444 63.1815L355.774 85.5065C356.361 87.9655 354.497 90.3265 351.969 90.3265Z" fill="#FFB800"/>
<path d="M269.611 49.6611H261.787V110.668H269.611V49.6611Z" fill="#162E4C"/>
<path d="M351.97 93.0439H342.793C341.022 93.0439 339.358 92.3539 338.106 91.1029L335.807 88.8039C335.582 88.5779 335.282 88.4539 334.962 88.4539H311.91C308.256 88.4539 305.282 85.4809 305.282 81.8259V64.0909C305.282 60.4359 308.256 57.4619 311.91 57.4619H346.638C349.718 57.4619 352.369 59.5549 353.084 62.5509L358.414 84.8759C358.889 86.8619 358.435 88.9199 357.17 90.5219C355.907 92.1249 354.011 93.0439 351.97 93.0439ZM311.911 58.4629C308.807 58.4629 306.283 60.9879 306.283 64.0919V81.8269C306.283 84.9299 308.807 87.4549 311.911 87.4549H334.963C335.549 87.4549 336.1 87.6829 336.515 88.0979L338.814 90.3969C339.878 91.4599 341.291 92.0449 342.794 92.0449H351.971C353.704 92.0449 355.315 91.2649 356.388 89.9039C357.462 88.5439 357.847 86.7959 357.445 85.1099L352.115 62.7849C351.508 60.2409 349.257 58.4639 346.641 58.4639L311.911 58.4629Z" fill="#FFE08E"/>
<path d="M321.312 60.1797H317.74V85.7377H321.312V60.1797Z" fill="#162E4C"/>
<path d="M279.73 41.5455V38.0495C279.73 36.7895 280.751 35.7686 282.011 35.7686H324.348C328.542 35.7686 331.941 39.1685 331.941 43.3615L279.73 41.5455Z" fill="#FFB800"/>
<path d="M279.757 41.0504L279.723 42.0498L331.934 43.8679L331.969 42.8685L279.757 41.0504Z" fill="#FFE08E"/>
<path d="M360.031 140.555H338.669V118.286H360.031C360.908 118.286 361.619 118.997 361.619 119.874V138.966C361.619 139.844 360.908 140.555 360.031 140.555Z" fill="#162E4C"/>
<path d="M359.115 106.961H332.488V107.961H359.115V106.961Z" fill="#FFE08E"/>
<path d="M274.029 41.3291H273.029V140.556H274.029V41.3291Z" fill="#FFE08E"/>
<path d="M357.299 115.442C356.938 115.442 356.646 115.149 356.646 114.788V111.323C356.646 110.962 356.938 110.669 357.299 110.669C357.66 110.669 357.953 110.962 357.953 111.323V114.788C357.953 115.149 357.66 115.442 357.299 115.442Z" fill="white"/>
<path d="M290.461 36.7812H284.28V37.7812H290.461V36.7812Z" fill="#FFE08E"/>
<path d="M290.461 38.248H284.28V39.248H290.461V38.248Z" fill="#FFE08E"/>
<path d="M290.461 39.7148H284.28V40.7148H290.461V39.7148Z" fill="#FFE08E"/>
<path d="M302.11 66.9814H273.529V67.9814H302.11V66.9814Z" fill="#FFE08E"/>
<path d="M302.11 77.9346H273.529V78.9346H302.11V77.9346Z" fill="#FFE08E"/>
<path d="M353.198 54.4639H273.529V55.4639H353.198V54.4639Z" fill="#FFE08E"/>
<path d="M299.345 107.836H281.161C279.36 107.836 277.896 106.371 277.896 104.57V95.226C277.896 93.425 279.36 91.96 281.161 91.96H299.345C301.146 91.96 302.612 93.425 302.612 95.226V104.57C302.611 106.371 301.145 107.836 299.345 107.836ZM281.161 92.961C279.912 92.961 278.896 93.978 278.896 95.227V104.571C278.896 105.82 279.912 106.837 281.161 106.837H299.345C300.594 106.837 301.612 105.82 301.612 104.571V95.227C301.612 93.978 300.594 92.961 299.345 92.961H281.161Z" fill="#FFE08E"/>
<path d="M280.86 106.506C279.969 106.506 279.245 105.781 279.245 104.891C279.245 104 279.97 103.276 280.86 103.276C281.75 103.276 282.475 104.001 282.475 104.891C282.475 105.782 281.751 106.506 280.86 106.506ZM280.86 104.276C280.521 104.276 280.245 104.552 280.245 104.891C280.245 105.23 280.521 105.506 280.86 105.506C281.199 105.506 281.475 105.23 281.475 104.891C281.475 104.552 281.199 104.276 280.86 104.276Z" fill="#FFE08E"/>
<path d="M325.498 105.902H324.462C324.091 105.902 323.789 105.601 323.789 105.229V102.128C323.789 101.757 324.09 101.455 324.462 101.455H325.498C325.87 101.455 326.171 101.756 326.171 102.128V105.229C326.171 105.601 325.869 105.902 325.498 105.902Z" fill="#162E4C"/>
<path d="M325.619 107.96H324.341C323.008 107.96 321.924 106.875 321.924 105.543V101.814C321.924 100.481 323.008 99.3975 324.341 99.3975H325.619C326.952 99.3975 328.036 100.481 328.036 101.814V105.543C328.036 106.876 326.952 107.96 325.619 107.96ZM324.341 100.397C323.56 100.397 322.924 101.033 322.924 101.814V105.543C322.924 106.324 323.56 106.96 324.341 106.96H325.619C326.4 106.96 327.036 106.324 327.036 105.543V101.814C327.036 101.033 326.4 100.397 325.619 100.397H324.341Z" fill="#FFE08E"/>
<path d="M324.096 140.555C324.416 139.207 324.591 137.803 324.591 136.357C324.591 126.306 316.443 118.159 306.393 118.159C296.342 118.159 288.194 126.307 288.194 136.357C288.194 137.803 288.369 139.207 288.689 140.555H324.096Z" fill="#FFE08E"/>
<path d="M328.088 140.658L327.109 140.454C327.405 139.036 327.555 137.589 327.555 136.154C327.555 124.485 318.061 114.991 306.392 114.991C294.723 114.991 285.229 124.485 285.229 136.154C285.229 137.561 285.375 138.983 285.661 140.381L284.681 140.581C284.382 139.117 284.23 137.628 284.23 136.154C284.23 123.933 294.172 113.991 306.393 113.991C318.614 113.991 328.556 123.933 328.556 136.154C328.555 137.657 328.398 139.172 328.088 140.658Z" fill="#FFE08E"/>
<path d="M320.026 87.9531H319.026V118.929H320.026V87.9531Z" fill="#FFE08E"/>
<path d="M317.642 147.987C323.858 141.771 323.858 131.693 317.642 125.478C311.426 119.262 301.348 119.262 295.132 125.478C288.916 131.693 288.916 141.771 295.132 147.987C301.348 154.203 311.426 154.203 317.642 147.987Z" fill="#162E4C"/>
<path d="M306.41 153.113L306.373 153.112C306.369 153.112 306.364 153.112 306.36 153.112C305.913 153.112 305.444 153.092 304.984 153.053L305.063 152.132C305.502 152.17 305.949 152.188 306.393 152.188L306.41 153.113ZM307.837 153.05L307.757 152.128C308.203 152.089 308.653 152.03 309.093 151.952L309.254 152.863C308.786 152.947 308.309 153.009 307.837 153.05ZM303.568 152.87C303.099 152.788 302.629 152.685 302.172 152.564L302.411 151.671C302.841 151.786 303.284 151.883 303.726 151.96L303.568 152.87ZM310.647 152.555L310.407 151.661C310.84 151.545 311.272 151.408 311.692 151.255L312.009 152.124C311.564 152.287 311.106 152.432 310.647 152.555ZM300.809 152.137C300.363 151.976 299.918 151.792 299.488 151.591L299.878 150.753C300.284 150.942 300.703 151.114 301.124 151.267L300.809 152.137ZM313.327 151.577L312.935 150.74C313.341 150.55 313.742 150.339 314.129 150.115L314.593 150.917C314.183 151.154 313.757 151.376 313.327 151.577ZM298.221 150.932C297.81 150.695 297.404 150.437 297.016 150.165L297.546 149.408C297.912 149.664 298.295 149.907 298.683 150.132L298.221 150.932ZM315.795 150.147L315.264 149.391C315.629 149.134 315.989 148.857 316.332 148.568L316.927 149.276C316.564 149.582 316.183 149.875 315.795 150.147ZM295.882 149.297C295.517 148.991 295.162 148.667 294.828 148.333L295.481 147.678C295.797 147.993 296.132 148.299 296.476 148.587L295.882 149.297ZM317.979 148.311L317.325 147.656C317.639 147.342 317.946 147.007 318.236 146.662L318.944 147.257C318.637 147.623 318.313 147.977 317.979 148.311ZM293.861 147.283C293.555 146.92 293.262 146.539 292.989 146.151L293.745 145.618C294.003 145.984 294.28 146.343 294.568 146.686L293.861 147.283ZM319.814 146.125L319.056 145.594C319.314 145.226 319.558 144.844 319.782 144.457L320.583 144.921C320.346 145.331 320.087 145.735 319.814 146.125ZM292.22 144.949C291.981 144.537 291.758 144.112 291.557 143.684L292.395 143.292C292.584 143.695 292.794 144.096 293.02 144.484L292.22 144.949ZM321.243 143.654L320.404 143.262C320.594 142.855 320.767 142.436 320.92 142.016L321.789 142.333C321.628 142.777 321.444 143.222 321.243 143.654ZM291.007 142.366C290.844 141.922 290.698 141.464 290.575 141.004L291.469 140.763C291.586 141.197 291.723 141.629 291.876 142.047L291.007 142.366ZM322.219 140.97L321.325 140.732C321.44 140.3 321.537 139.858 321.615 139.417L322.527 139.576C322.444 140.043 322.341 140.512 322.219 140.97ZM290.265 139.611C290.182 139.145 290.119 138.667 290.077 138.194L290.999 138.113C291.038 138.559 291.098 139.009 291.176 139.449L290.265 139.611ZM322.711 138.16L321.789 138.081C321.827 137.634 321.847 137.181 321.847 136.734V136.667H322.772V136.725C322.772 137.207 322.751 137.686 322.711 138.16ZM290.013 136.767L290.014 136.715C290.014 136.269 290.033 135.801 290.072 135.342L290.994 135.421C290.958 135.854 290.939 136.295 290.939 136.734L290.013 136.767ZM321.783 135.322C321.742 134.874 321.682 134.424 321.603 133.986L322.514 133.822C322.598 134.287 322.662 134.763 322.705 135.237L321.783 135.322ZM291.165 134.085L290.253 133.926C290.334 133.457 290.437 132.987 290.558 132.531L291.453 132.768C291.338 133.198 291.241 133.642 291.165 134.085ZM321.308 132.671C321.19 132.238 321.052 131.806 320.898 131.388L321.766 131.068C321.929 131.511 322.076 131.97 322.201 132.43L321.308 132.671ZM291.853 131.482L290.983 131.167C291.144 130.721 291.328 130.276 291.527 129.846L292.366 130.236C292.178 130.643 292.005 131.061 291.853 131.482ZM320.377 130.146C320.187 129.743 319.976 129.342 319.75 128.954L320.549 128.487C320.789 128.898 321.013 129.323 321.214 129.751L320.377 130.146ZM292.987 129.039L292.185 128.578C292.421 128.168 292.679 127.762 292.951 127.372L293.71 127.901C293.453 128.269 293.209 128.652 292.987 129.039ZM319.02 127.822C318.762 127.457 318.485 127.098 318.194 126.755L318.901 126.158C319.208 126.521 319.502 126.9 319.775 127.286L319.02 127.822ZM294.529 126.829L293.819 126.236C294.124 125.872 294.447 125.517 294.782 125.181L295.438 125.835C295.121 126.152 294.816 126.486 294.529 126.829ZM317.281 125.766C316.962 125.45 316.626 125.144 316.284 124.858L316.877 124.147C317.24 124.45 317.595 124.773 317.933 125.108L317.281 125.766ZM296.427 124.921L295.831 124.214C296.194 123.907 296.575 123.612 296.961 123.34L297.494 124.096C297.129 124.354 296.77 124.632 296.427 124.921ZM315.212 124.042C314.844 123.786 314.46 123.542 314.073 123.32L314.534 122.518C314.944 122.754 315.35 123.012 315.741 123.283L315.212 124.042ZM298.628 123.368L298.163 122.568C298.572 122.33 298.998 122.106 299.427 121.904L299.821 122.741C299.415 122.933 299.014 123.144 298.628 123.368ZM312.876 122.701C312.468 122.512 312.048 122.34 311.629 122.189L311.942 121.318C312.386 121.478 312.831 121.66 313.264 121.861L312.876 122.701ZM301.063 122.223L300.744 121.354C301.189 121.19 301.647 121.045 302.105 120.921L302.347 121.814C301.914 121.931 301.483 122.069 301.063 122.223ZM310.343 121.789C309.91 121.675 309.467 121.579 309.027 121.503L309.183 120.591C309.65 120.671 310.12 120.774 310.579 120.895L310.343 121.789ZM303.661 121.52L303.498 120.609C303.964 120.526 304.44 120.463 304.913 120.421L304.995 121.342C304.55 121.381 304.1 121.441 303.661 121.52ZM307.689 121.333C307.26 121.297 306.824 121.279 306.392 121.279H306.341V120.354H306.392C306.849 120.354 307.311 120.373 307.765 120.411L307.689 121.333Z" fill="#162E4C"/>
<path d="M306.392 143.506C310.133 143.506 313.165 140.474 313.165 136.733C313.165 132.992 310.133 129.96 306.392 129.96C302.651 129.96 299.619 132.992 299.619 136.733C299.619 140.474 302.651 143.506 306.392 143.506Z" fill="white"/>
<path d="M306.391 143.353C302.741 143.353 299.771 140.383 299.771 136.733C299.771 133.083 302.741 130.113 306.391 130.113C310.041 130.113 313.012 133.083 313.012 136.733C313.013 140.384 310.042 143.353 306.391 143.353ZM306.391 131.113C303.292 131.113 300.771 133.634 300.771 136.733C300.771 139.832 303.292 142.353 306.391 142.353C309.49 142.353 312.012 139.832 312.012 136.733C312.013 133.634 309.49 131.113 306.391 131.113Z" fill="#486C9E"/>
<path d="M306.392 152.192C297.868 152.192 290.933 145.257 290.933 136.733C290.933 128.209 297.868 121.274 306.392 121.274C314.916 121.274 321.851 128.209 321.851 136.733C321.851 145.257 314.917 152.192 306.392 152.192ZM306.392 122.274C298.419 122.274 291.933 128.76 291.933 136.733C291.933 144.706 298.419 151.192 306.392 151.192C314.365 151.192 320.851 144.706 320.851 136.733C320.851 128.761 314.365 122.274 306.392 122.274Z" fill="#486C9E"/>
<path d="M308.257 136.733C308.257 137.763 307.422 138.599 306.391 138.599C305.361 138.599 304.525 137.764 304.525 136.733C304.525 135.702 305.36 134.867 306.391 134.867C307.422 134.868 308.257 135.703 308.257 136.733Z" fill="#162E4C"/>
<path d="M306.392 133.531C306.872 133.531 307.261 133.142 307.261 132.662C307.261 132.182 306.872 131.793 306.392 131.793C305.912 131.793 305.523 132.182 305.523 132.662C305.523 133.142 305.912 133.531 306.392 133.531Z" fill="#476B9E"/>
<path d="M306.392 141.674C306.872 141.674 307.261 141.284 307.261 140.805C307.261 140.325 306.872 139.936 306.392 139.936C305.912 139.936 305.523 140.325 305.523 140.805C305.523 141.284 305.912 141.674 306.392 141.674Z" fill="#476B9E"/>
<path d="M310.463 137.603C309.983 137.603 309.594 137.214 309.594 136.734C309.594 136.254 309.983 135.865 310.463 135.865C310.943 135.865 311.332 136.254 311.332 136.734C311.332 137.214 310.943 137.603 310.463 137.603Z" fill="#476B9E"/>
<path d="M302.32 137.603C301.84 137.603 301.451 137.214 301.451 136.734C301.451 136.254 301.84 135.865 302.32 135.865C302.8 135.865 303.189 136.254 303.189 136.734C303.189 137.214 302.801 137.603 302.32 137.603Z" fill="#476B9E"/>
<path d="M309.27 134.724C309.75 134.724 310.139 134.335 310.139 133.855C310.139 133.375 309.75 132.986 309.27 132.986C308.79 132.986 308.401 133.375 308.401 133.855C308.401 134.335 308.79 134.724 309.27 134.724Z" fill="#476B9E"/>
<path d="M304.128 140.227C303.788 140.567 303.238 140.567 302.899 140.227C302.56 139.888 302.56 139.337 302.899 138.998C303.239 138.658 303.789 138.658 304.128 138.998C304.468 139.337 304.468 139.887 304.128 140.227Z" fill="#476B9E"/>
<path d="M308.656 140.226C308.316 139.887 308.316 139.336 308.656 138.997C308.995 138.657 309.546 138.657 309.885 138.997C310.224 139.336 310.224 139.887 309.885 140.226C309.545 140.565 308.995 140.565 308.656 140.226Z" fill="#476B9E"/>
<path d="M302.899 134.469C302.56 134.13 302.56 133.579 302.899 133.24C303.239 132.901 303.789 132.901 304.128 133.24C304.468 133.58 304.468 134.13 304.128 134.469C303.789 134.809 303.239 134.809 302.899 134.469Z" fill="#476B9E"/>
<path d="M355.656 76.9231C355.197 76.9231 354.826 76.5511 354.826 76.0921V62.5771C354.826 62.1181 355.198 61.7471 355.656 61.7471H355.831C357.315 61.7471 358.518 62.9501 358.518 64.4341V74.0621C358.517 75.6411 357.236 76.9231 355.656 76.9231Z" fill="#162E4C"/>
<path d="M356.383 62.3049H355.383V60.6999C355.383 59.4669 354.379 58.4629 353.146 58.4629H350.863V57.4629H353.146C354.931 57.4629 356.383 58.9149 356.383 60.6999V62.3049Z" fill="#162E4C"/>
<path d="M351.359 58.3881H350.921C350.726 58.3881 350.568 58.2301 350.568 58.0351V57.8901C350.568 57.6951 350.726 57.5371 350.921 57.5371H351.359C351.554 57.5371 351.712 57.6951 351.712 57.8901V58.0351C351.712 58.2301 351.554 58.3881 351.359 58.3881Z" fill="#162E4C"/>
<path d="M76.5303 147.986C82.7463 141.77 82.7463 131.692 76.5304 125.477C70.3144 119.261 60.2364 119.261 54.0205 125.477C47.8046 131.692 47.8046 141.77 54.0205 147.986C60.2364 154.202 70.3144 154.202 76.5303 147.986Z" fill="#162E4C"/>
<path d="M65.2964 153.113L65.2594 153.112C65.2554 153.112 65.2504 153.112 65.2464 153.112C64.7994 153.112 64.3304 153.092 63.8704 153.053L63.9494 152.132C64.3884 152.17 64.8354 152.188 65.2794 152.188L65.2964 153.113ZM66.7234 153.05L66.6434 152.128C67.0894 152.089 67.5394 152.03 67.9784 151.952L68.1394 152.863C67.6734 152.947 67.1964 153.009 66.7234 153.05ZM62.4554 152.87C61.9864 152.788 61.5164 152.685 61.0594 152.564L61.2984 151.671C61.7284 151.786 62.1714 151.883 62.6134 151.96L62.4554 152.87ZM69.5344 152.555L69.2944 151.661C69.7274 151.545 70.1594 151.408 70.5794 151.255L70.8964 152.124C70.4504 152.287 69.9924 152.432 69.5344 152.555ZM59.6964 152.137C59.2504 151.976 58.8054 151.792 58.3754 151.591L58.7654 150.753C59.1714 150.942 59.5904 151.114 60.0114 151.267L59.6964 152.137ZM72.2144 151.577L71.8224 150.74C72.2284 150.55 72.6294 150.339 73.0164 150.115L73.4804 150.917C73.0694 151.154 72.6444 151.376 72.2144 151.577ZM57.1074 150.932C56.6964 150.695 56.2904 150.437 55.9024 150.165L56.4324 149.408C56.7984 149.664 57.1814 149.907 57.5694 150.132L57.1074 150.932ZM74.6824 150.147L74.1514 149.391C74.5174 149.134 74.8764 148.857 75.2194 148.568L75.8144 149.276C75.4504 149.582 75.0694 149.875 74.6824 150.147ZM54.7694 149.297C54.4044 148.991 54.0494 148.667 53.7144 148.333L54.3674 147.678C54.6834 147.993 55.0184 148.299 55.3624 148.587L54.7694 149.297ZM76.8664 148.311L76.2124 147.656C76.5264 147.342 76.8334 147.007 77.1234 146.662L77.8314 147.257C77.5244 147.623 77.1994 147.977 76.8664 148.311ZM52.7474 147.283C52.4414 146.92 52.1484 146.539 51.8754 146.151L52.6314 145.618C52.8884 145.984 53.1654 146.343 53.4544 146.686L52.7474 147.283ZM78.7014 146.125L77.9434 145.594C78.2014 145.226 78.4454 144.844 78.6694 144.457L79.4704 144.921C79.2324 145.331 78.9744 145.735 78.7014 146.125ZM51.1064 144.949C50.8674 144.537 50.6444 144.112 50.4434 143.684L51.2814 143.292C51.4704 143.695 51.6804 144.096 51.9064 144.484L51.1064 144.949ZM80.1304 143.654L79.2914 143.262C79.4814 142.855 79.6544 142.436 79.8074 142.016L80.6764 142.333C80.5154 142.777 80.3314 143.222 80.1304 143.654ZM49.8944 142.366C49.7314 141.922 49.5854 141.464 49.4624 141.004L50.3564 140.763C50.4734 141.197 50.6104 141.629 50.7634 142.047L49.8944 142.366ZM81.1054 140.97L80.2114 140.732C80.3264 140.3 80.4234 139.858 80.5014 139.417L81.4134 139.576C81.3314 140.043 81.2274 140.512 81.1054 140.97ZM49.1524 139.611C49.0694 139.145 49.0064 138.667 48.9644 138.194L49.8864 138.113C49.9254 138.559 49.9854 139.009 50.0634 139.449L49.1524 139.611ZM81.5974 138.16L80.6754 138.081C80.7134 137.634 80.7334 137.181 80.7334 136.734V136.667H81.6584L81.6594 136.725C81.6594 137.207 81.6384 137.686 81.5974 138.16ZM48.8994 136.767L48.9004 136.715C48.8994 136.269 48.9194 135.801 48.9584 135.342L49.8804 135.421C49.8444 135.854 49.8254 136.295 49.8254 136.734L48.8994 136.767ZM80.6704 135.322C80.6294 134.874 80.5694 134.424 80.4904 133.986L81.4014 133.822C81.4854 134.287 81.5494 134.763 81.5924 135.237L80.6704 135.322ZM50.0514 134.085L49.1394 133.926C49.2204 133.457 49.3234 132.987 49.4444 132.531L50.3384 132.768C50.2254 133.198 50.1284 133.642 50.0514 134.085ZM80.1954 132.671C80.0774 132.238 79.9394 131.806 79.7854 131.388L80.6534 131.068C80.8174 131.511 80.9634 131.97 81.0884 132.43L80.1954 132.671ZM50.7404 131.482L49.8704 131.167C50.0314 130.721 50.2154 130.276 50.4144 129.846L51.2534 130.236C51.0644 130.643 50.8924 131.061 50.7404 131.482ZM79.2644 130.146C79.0744 129.743 78.8634 129.342 78.6364 128.954L79.4354 128.487C79.6754 128.898 79.8994 129.323 80.1004 129.751L79.2644 130.146ZM51.8744 129.039L51.0724 128.578C51.3084 128.168 51.5664 127.762 51.8384 127.372L52.5974 127.901C52.3394 128.269 52.0964 128.652 51.8744 129.039ZM77.9074 127.822C77.6494 127.457 77.3724 127.098 77.0824 126.755L77.7894 126.158C78.0964 126.521 78.3904 126.9 78.6634 127.286L77.9074 127.822ZM53.4154 126.829L52.7054 126.236C53.0094 125.872 53.3344 125.517 53.6684 125.181L54.3244 125.835C54.0084 126.152 53.7024 126.486 53.4154 126.829ZM76.1684 125.766C75.8494 125.45 75.5134 125.144 75.1704 124.858L75.7634 124.147C76.1264 124.45 76.4814 124.773 76.8194 125.108L76.1684 125.766ZM55.3134 124.921L54.7174 124.214C55.0804 123.907 55.4614 123.612 55.8474 123.34L56.3804 124.096C56.0164 124.354 55.6574 124.632 55.3134 124.921ZM74.0984 124.042C73.7304 123.786 73.3464 123.542 72.9594 123.32L73.4204 122.518C73.8304 122.754 74.2364 123.012 74.6274 123.283L74.0984 124.042ZM57.5144 123.368L57.0494 122.568C57.4584 122.33 57.8834 122.106 58.3134 121.904L58.7074 122.741C58.3024 122.933 57.9004 123.144 57.5144 123.368ZM71.7624 122.701C71.3534 122.512 70.9344 122.34 70.5154 122.189L70.8294 121.318C71.2734 121.478 71.7184 121.66 72.1514 121.861L71.7624 122.701ZM59.9494 122.223L59.6304 121.354C60.0754 121.19 60.5334 121.045 60.9914 120.921L61.2334 121.814C60.8014 121.931 60.3694 122.069 59.9494 122.223ZM69.2294 121.789C68.7964 121.675 68.3534 121.579 67.9134 121.503L68.0694 120.591C68.5364 120.671 69.0064 120.774 69.4654 120.895L69.2294 121.789ZM62.5484 121.52L62.3854 120.609C62.8514 120.526 63.3274 120.463 63.8014 120.421L63.8834 121.342C63.4364 121.381 62.9874 121.441 62.5484 121.52ZM66.5764 121.333C66.1474 121.297 65.7114 121.279 65.2794 121.279H65.2284V120.354H65.2794C65.7364 120.354 66.1984 120.373 66.6524 120.411L66.5764 121.333Z" fill="#162E4C"/>
<path d="M65.2798 143.506C69.0205 143.506 72.0528 140.474 72.0528 136.733C72.0528 132.992 69.0205 129.96 65.2798 129.96C61.5392 129.96 58.5068 132.992 58.5068 136.733C58.5068 140.474 61.5392 143.506 65.2798 143.506Z" fill="white"/>
<path d="M65.2792 143.353C61.6292 143.353 58.6592 140.383 58.6592 136.733C58.6592 133.083 61.6292 130.113 65.2792 130.113C68.9292 130.113 71.8992 133.083 71.8992 136.733C71.8992 140.384 68.9292 143.353 65.2792 143.353ZM65.2792 131.113C62.1802 131.113 59.6592 133.634 59.6592 136.733C59.6592 139.832 62.1802 142.353 65.2792 142.353C68.3782 142.353 70.8992 139.832 70.8992 136.733C70.8992 133.634 68.3782 131.113 65.2792 131.113Z" fill="#486C9E"/>
<path d="M65.2793 152.192C56.7553 152.192 49.8203 145.257 49.8203 136.733C49.8203 128.209 56.7553 121.274 65.2793 121.274C73.8033 121.274 80.7383 128.209 80.7383 136.733C80.7383 145.257 73.8043 152.192 65.2793 152.192ZM65.2793 122.274C57.3063 122.274 50.8203 128.76 50.8203 136.733C50.8203 144.706 57.3063 151.192 65.2793 151.192C73.2523 151.192 79.7383 144.706 79.7383 136.733C79.7383 128.761 73.2523 122.274 65.2793 122.274Z" fill="#486C9E"/>
<path d="M65.2791 138.599C66.3096 138.599 67.1451 137.764 67.1451 136.733C67.1451 135.703 66.3096 134.867 65.2791 134.867C64.2485 134.867 63.4131 135.703 63.4131 136.733C63.4131 137.764 64.2485 138.599 65.2791 138.599Z" fill="#162E4C"/>
<path d="M65.2791 133.531C65.7591 133.531 66.1481 133.142 66.1481 132.662C66.1481 132.182 65.7591 131.793 65.2791 131.793C64.7992 131.793 64.4102 132.182 64.4102 132.662C64.4102 133.142 64.7992 133.531 65.2791 133.531Z" fill="#476B9E"/>
<path d="M65.2791 141.674C65.7591 141.674 66.1481 141.284 66.1481 140.805C66.1481 140.325 65.7591 139.936 65.2791 139.936C64.7992 139.936 64.4102 140.325 64.4102 140.805C64.4102 141.284 64.7992 141.674 65.2791 141.674Z" fill="#476B9E"/>
<path d="M69.3504 137.602C69.8304 137.602 70.2194 137.213 70.2194 136.733C70.2194 136.253 69.8304 135.864 69.3504 135.864C68.8705 135.864 68.4814 136.253 68.4814 136.733C68.4814 137.213 68.8705 137.602 69.3504 137.602Z" fill="#476B9E"/>
<path d="M61.2088 137.602C61.6888 137.602 62.0779 137.213 62.0779 136.733C62.0779 136.253 61.6888 135.864 61.2088 135.864C60.7289 135.864 60.3398 136.253 60.3398 136.733C60.3398 137.213 60.7289 137.602 61.2088 137.602Z" fill="#476B9E"/>
<path d="M68.1581 134.724C68.638 134.724 69.0271 134.335 69.0271 133.855C69.0271 133.375 68.638 132.986 68.1581 132.986C67.6781 132.986 67.2891 133.375 67.2891 133.855C67.2891 134.335 67.6781 134.724 68.1581 134.724Z" fill="#476B9E"/>
<path d="M63.0153 140.227C62.6753 140.567 62.1252 140.567 61.7862 140.227C61.4462 139.888 61.4462 139.337 61.7862 138.998C62.1252 138.658 62.6763 138.658 63.0153 138.998C63.3543 139.337 63.3543 139.887 63.0153 140.227Z" fill="#476B9E"/>
<path d="M67.5433 140.227C67.2043 139.888 67.2043 139.337 67.5433 138.998C67.8833 138.658 68.4333 138.658 68.7723 138.998C69.1123 139.337 69.1123 139.888 68.7723 140.227C68.4333 140.566 67.8833 140.566 67.5433 140.227Z" fill="#476B9E"/>
<path d="M61.7862 134.47C61.4462 134.131 61.4462 133.58 61.7862 133.241C62.1252 132.902 62.6763 132.902 63.0153 133.241C63.3543 133.581 63.3543 134.131 63.0153 134.47C62.6753 134.81 62.1252 134.81 61.7862 134.47Z" fill="#476B9E"/>
<path d="M45.0555 140.369C47.0616 131.811 41.7496 123.246 33.191 121.24C24.6323 119.234 16.068 124.546 14.0619 133.105C12.0559 141.663 17.3678 150.228 25.9265 152.234C34.4851 154.24 43.0495 148.928 45.0555 140.369Z" fill="#162E4C"/>
<path d="M29.5816 153.113L29.5446 153.112C29.5406 153.112 29.5356 153.112 29.5316 153.112C29.0846 153.112 28.6156 153.092 28.1556 153.053L28.2346 152.132C28.6736 152.17 29.1206 152.188 29.5646 152.188L29.5816 153.113ZM31.0086 153.05L30.9286 152.128C31.3746 152.089 31.8246 152.03 32.2636 151.952L32.4246 152.863C31.9586 152.947 31.4816 153.009 31.0086 153.05ZM26.7406 152.87C26.2716 152.788 25.8016 152.685 25.3446 152.564L25.5836 151.671C26.0146 151.786 26.4566 151.883 26.8986 151.96L26.7406 152.87ZM33.8196 152.555L33.5796 151.661C34.0126 151.545 34.4446 151.408 34.8646 151.255L35.1816 152.124C34.7356 152.287 34.2776 152.432 33.8196 152.555ZM23.9816 152.137C23.5356 151.976 23.0916 151.792 22.6606 151.591L23.0506 150.753C23.4566 150.942 23.8756 151.114 24.2966 151.267L23.9816 152.137ZM36.4996 151.577L36.1076 150.74C36.5136 150.55 36.9146 150.339 37.3016 150.115L37.7646 150.917C37.3546 151.154 36.9296 151.376 36.4996 151.577ZM21.3926 150.932C20.9816 150.695 20.5756 150.437 20.1876 150.165L20.7176 149.408C21.0836 149.664 21.4666 149.907 21.8546 150.132L21.3926 150.932ZM38.9676 150.147L38.4366 149.391C38.8026 149.134 39.1616 148.857 39.5046 148.568L40.1006 149.276C39.7356 149.582 39.3546 149.875 38.9676 150.147ZM19.0546 149.297C18.6896 148.991 18.3346 148.667 18.0006 148.333L18.6536 147.678C18.9696 147.993 19.3046 148.299 19.6486 148.587L19.0546 149.297ZM41.1516 148.311L40.4976 147.656C40.8116 147.342 41.1186 147.007 41.4086 146.662L42.1166 147.257C41.8096 147.623 41.4846 147.977 41.1516 148.311ZM17.0326 147.283C16.7266 146.92 16.4336 146.539 16.1606 146.151L16.9166 145.618C17.1736 145.984 17.4506 146.343 17.7396 146.686L17.0326 147.283ZM42.9866 146.125L42.2286 145.594C42.4866 145.226 42.7306 144.844 42.9546 144.457L43.7556 144.921C43.5176 145.331 43.2596 145.735 42.9866 146.125ZM15.3916 144.949C15.1526 144.537 14.9296 144.112 14.7286 143.684L15.5666 143.292C15.7556 143.695 15.9656 144.096 16.1916 144.484L15.3916 144.949ZM44.4156 143.654L43.5766 143.262C43.7666 142.855 43.9396 142.436 44.0926 142.016L44.9616 142.333C44.8006 142.777 44.6166 143.222 44.4156 143.654ZM14.1796 142.366C14.0166 141.922 13.8716 141.464 13.7476 141.004L14.6416 140.763C14.7586 141.197 14.8956 141.629 15.0486 142.047L14.1796 142.366ZM45.3906 140.97L44.4966 140.732C44.6116 140.3 44.7086 139.858 44.7866 139.417L45.6986 139.576C45.6166 140.043 45.5126 140.512 45.3906 140.97ZM13.4376 139.611C13.3546 139.145 13.2916 138.667 13.2496 138.194L14.1716 138.113C14.2106 138.559 14.2706 139.009 14.3486 139.449L13.4376 139.611ZM45.8826 138.16L44.9606 138.081C44.9986 137.634 45.0186 137.181 45.0186 136.734V136.667H45.9436V136.725C45.9446 137.207 45.9236 137.686 45.8826 138.16ZM13.1846 136.767L13.1856 136.715C13.1856 136.269 13.2046 135.801 13.2436 135.342L14.1656 135.421C14.1296 135.854 14.1106 136.295 14.1106 136.734L13.1846 136.767ZM44.9556 135.322C44.9146 134.874 44.8546 134.424 44.7756 133.986L45.6866 133.822C45.7696 134.287 45.8346 134.763 45.8776 135.237L44.9556 135.322ZM14.3366 134.085L13.4246 133.926C13.5056 133.457 13.6086 132.987 13.7296 132.531L14.6246 132.768C14.5106 133.198 14.4136 133.642 14.3366 134.085ZM44.4806 132.671C44.3626 132.238 44.2246 131.806 44.0706 131.388L44.9386 131.068C45.1026 131.511 45.2486 131.97 45.3736 132.43L44.4806 132.671ZM15.0256 131.482L14.1556 131.167C14.3166 130.721 14.5006 130.276 14.6996 129.846L15.5396 130.236C15.3506 130.643 15.1776 131.061 15.0256 131.482ZM43.5496 130.146C43.3596 129.743 43.1486 129.342 42.9216 128.954L43.7206 128.487C43.9606 128.898 44.1846 129.323 44.3866 129.751L43.5496 130.146ZM16.1596 129.039L15.3576 128.578C15.5936 128.168 15.8516 127.762 16.1236 127.372L16.8826 127.901C16.6256 128.269 16.3816 128.652 16.1596 129.039ZM42.1926 127.822C41.9346 127.457 41.6576 127.098 41.3676 126.755L42.0746 126.158C42.3816 126.521 42.6756 126.9 42.9486 127.286L42.1926 127.822ZM17.7006 126.829L16.9906 126.236C17.2946 125.872 17.6186 125.517 17.9536 125.181L18.6096 125.835C18.2936 126.152 17.9886 126.486 17.7006 126.829ZM40.4536 125.766C40.1346 125.45 39.7986 125.144 39.4556 124.858L40.0486 124.147C40.4116 124.45 40.7666 124.773 41.1046 125.108L40.4536 125.766ZM19.5996 124.921L19.0036 124.214C19.3666 123.907 19.7476 123.612 20.1336 123.34L20.6666 124.096C20.3016 124.354 19.9426 124.632 19.5996 124.921ZM38.3846 124.042C38.0166 123.786 37.6326 123.542 37.2456 123.32L37.7066 122.518C38.1166 122.754 38.5226 123.012 38.9136 123.283L38.3846 124.042ZM21.7996 123.368L21.3346 122.568C21.7436 122.33 22.1696 122.106 22.5986 121.904L22.9926 122.741C22.5876 122.933 22.1866 123.144 21.7996 123.368ZM36.0476 122.701C35.6396 122.512 35.2196 122.34 34.8006 122.189L35.1146 121.318C35.5586 121.478 36.0036 121.66 36.4366 121.861L36.0476 122.701ZM24.2346 122.223L23.9156 121.354C24.3606 121.19 24.8186 121.045 25.2766 120.921L25.5186 121.814C25.0866 121.931 24.6546 122.069 24.2346 122.223ZM33.5146 121.789C33.0816 121.675 32.6396 121.579 32.1986 121.503L32.3546 120.591C32.8216 120.671 33.2916 120.774 33.7506 120.895L33.5146 121.789ZM26.8336 121.52L26.6706 120.609C27.1366 120.526 27.6126 120.463 28.0856 120.421L28.1676 121.342C27.7216 121.381 27.2726 121.441 26.8336 121.52ZM30.8616 121.333C30.4326 121.297 29.9966 121.279 29.5646 121.279H29.5136V120.354H29.5646C30.0216 120.354 30.4836 120.373 30.9386 120.411L30.8616 121.333Z" fill="#162E4C"/>
<path d="M29.565 143.506C33.3056 143.506 36.338 140.474 36.338 136.733C36.338 132.992 33.3056 129.96 29.565 129.96C25.8244 129.96 22.792 132.992 22.792 136.733C22.792 140.474 25.8244 143.506 29.565 143.506Z" fill="white"/>
<path d="M29.5653 143.353C25.9153 143.353 22.9453 140.383 22.9453 136.733C22.9453 133.083 25.9153 130.113 29.5653 130.113C33.2153 130.113 36.1853 133.083 36.1853 136.733C36.1853 140.384 33.2163 143.353 29.5653 143.353ZM29.5653 131.113C26.4663 131.113 23.9453 133.634 23.9453 136.733C23.9453 139.832 26.4663 142.353 29.5653 142.353C32.6643 142.353 35.1853 139.832 35.1853 136.733C35.1853 133.634 32.6643 131.113 29.5653 131.113Z" fill="#486C9E"/>
<path d="M29.5654 152.192C21.0414 152.192 14.1064 145.257 14.1064 136.733C14.1064 128.209 21.0414 121.274 29.5654 121.274C38.0894 121.274 45.0244 128.209 45.0244 136.733C45.0244 145.257 38.0904 152.192 29.5654 152.192ZM29.5654 122.274C21.5924 122.274 15.1064 128.76 15.1064 136.733C15.1064 144.706 21.5924 151.192 29.5654 151.192C37.5384 151.192 44.0244 144.706 44.0244 136.733C44.0244 128.761 37.5384 122.274 29.5654 122.274Z" fill="#486C9E"/>
<path d="M31.4312 136.733C31.4312 137.763 30.5962 138.599 29.5652 138.599C28.5352 138.599 27.7002 137.764 27.7002 136.733C27.7002 135.702 28.5352 134.867 29.5652 134.867C30.5962 134.868 31.4312 135.703 31.4312 136.733Z" fill="#162E4C"/>
<path d="M29.5653 133.531C30.0452 133.531 30.4343 133.142 30.4343 132.662C30.4343 132.182 30.0452 131.793 29.5653 131.793C29.0853 131.793 28.6963 132.182 28.6963 132.662C28.6963 133.142 29.0853 133.531 29.5653 133.531Z" fill="#476B9E"/>
<path d="M29.5653 141.674C30.0452 141.674 30.4343 141.284 30.4343 140.805C30.4343 140.325 30.0452 139.936 29.5653 139.936C29.0853 139.936 28.6963 140.325 28.6963 140.805C28.6963 141.284 29.0853 141.674 29.5653 141.674Z" fill="#476B9E"/>
<path d="M33.6356 137.602C34.1155 137.602 34.5046 137.213 34.5046 136.733C34.5046 136.253 34.1155 135.864 33.6356 135.864C33.1557 135.864 32.7666 136.253 32.7666 136.733C32.7666 137.213 33.1557 137.602 33.6356 137.602Z" fill="#476B9E"/>
<path d="M25.494 137.602C25.9739 137.602 26.363 137.213 26.363 136.733C26.363 136.253 25.9739 135.864 25.494 135.864C25.0141 135.864 24.625 136.253 24.625 136.733C24.625 137.213 25.0141 137.602 25.494 137.602Z" fill="#476B9E"/>
<path d="M33.0592 134.47C32.7192 134.81 32.1692 134.81 31.8302 134.47C31.4902 134.131 31.4902 133.58 31.8302 133.241C32.1702 132.902 32.7202 132.902 33.0592 133.241C33.3982 133.58 33.3982 134.131 33.0592 134.47Z" fill="#476B9E"/>
<path d="M27.3014 140.227C26.9624 140.567 26.4114 140.567 26.0724 140.227C25.7324 139.888 25.7324 139.337 26.0724 138.998C26.4124 138.658 26.9624 138.658 27.3014 138.998C27.6414 139.337 27.6414 139.887 27.3014 140.227Z" fill="#476B9E"/>
<path d="M31.8292 140.227C31.4892 139.888 31.4892 139.337 31.8292 138.998C32.1692 138.658 32.7192 138.658 33.0582 138.998C33.3972 139.337 33.3972 139.888 33.0582 140.227C32.7192 140.566 32.1692 140.566 31.8292 140.227Z" fill="#476B9E"/>
<path d="M26.0724 134.47C25.7324 134.131 25.7324 133.58 26.0724 133.241C26.4124 132.902 26.9624 132.902 27.3014 133.241C27.6414 133.581 27.6414 134.131 27.3014 134.47C26.9624 134.81 26.4114 134.81 26.0724 134.47Z" fill="#476B9E"/>
<path d="M83.1863 136.389H82.1863C82.1863 127.239 74.7423 119.795 65.5923 119.795H29.0823C19.9333 119.795 12.4883 127.239 12.4883 136.389H11.4883C11.4883 126.687 19.3813 118.795 29.0823 118.795H65.5933C75.2943 118.795 83.1863 126.687 83.1863 136.389Z" fill="#162E4C"/>
<path d="M246.336 147.987C252.552 141.771 252.552 131.693 246.336 125.477C240.12 119.262 230.042 119.262 223.826 125.478C217.61 131.693 217.61 141.771 223.826 147.987C230.042 154.203 240.12 154.203 246.336 147.987Z" fill="#162E4C"/>
<path d="M235.103 153.113L235.067 153.112C235.063 153.112 235.058 153.112 235.054 153.112C234.607 153.112 234.138 153.092 233.678 153.053L233.757 152.132C234.196 152.17 234.643 152.188 235.087 152.188L235.103 153.113ZM236.53 153.05L236.45 152.128C236.896 152.089 237.346 152.03 237.786 151.952L237.947 152.863C237.479 152.947 237.003 153.009 236.53 153.05ZM232.261 152.87C231.792 152.788 231.322 152.685 230.865 152.564L231.104 151.671C231.534 151.786 231.977 151.883 232.419 151.96L232.261 152.87ZM239.34 152.555L239.1 151.661C239.533 151.545 239.965 151.408 240.385 151.255L240.702 152.124C240.257 152.287 239.799 152.432 239.34 152.555ZM229.503 152.137C229.057 151.976 228.612 151.792 228.182 151.591L228.572 150.753C228.978 150.942 229.397 151.114 229.818 151.267L229.503 152.137ZM242.02 151.577L241.628 150.74C242.034 150.55 242.435 150.339 242.822 150.115L243.286 150.917C242.876 151.154 242.45 151.376 242.02 151.577ZM226.914 150.932C226.503 150.695 226.097 150.437 225.709 150.165L226.239 149.408C226.605 149.664 226.988 149.907 227.376 150.132L226.914 150.932ZM244.488 150.147L243.957 149.391C244.323 149.134 244.682 148.857 245.025 148.568L245.621 149.276C245.257 149.582 244.876 149.875 244.488 150.147ZM224.575 149.297C224.21 148.991 223.855 148.667 223.52 148.333L224.173 147.678C224.489 147.993 224.824 148.299 225.168 148.587L224.575 149.297ZM246.672 148.311L246.018 147.656C246.332 147.342 246.639 147.007 246.929 146.662L247.637 147.257C247.331 147.623 247.006 147.977 246.672 148.311ZM222.554 147.283C222.248 146.92 221.955 146.539 221.682 146.151L222.438 145.618C222.696 145.984 222.972 146.343 223.261 146.686L222.554 147.283ZM248.508 146.125L247.75 145.594C248.008 145.226 248.252 144.844 248.476 144.457L249.277 144.921C249.039 145.331 248.781 145.735 248.508 146.125ZM220.913 144.949C220.674 144.537 220.451 144.112 220.25 143.684L221.088 143.292C221.277 143.695 221.487 144.096 221.713 144.484L220.913 144.949ZM249.937 143.654L249.098 143.262C249.288 142.855 249.461 142.436 249.614 142.016L250.483 142.333C250.321 142.777 250.138 143.222 249.937 143.654ZM219.701 142.366C219.538 141.922 219.392 141.464 219.269 141.004L220.163 140.763C220.28 141.197 220.417 141.629 220.57 142.047L219.701 142.366ZM250.912 140.97L250.018 140.732C250.133 140.3 250.23 139.858 250.308 139.417L251.22 139.576C251.138 140.043 251.034 140.512 250.912 140.97ZM218.958 139.611C218.875 139.145 218.812 138.667 218.77 138.194L219.692 138.113C219.731 138.559 219.791 139.009 219.869 139.449L218.958 139.611ZM251.404 138.16L250.482 138.081C250.52 137.634 250.54 137.181 250.54 136.734V136.667H251.465L251.466 136.725C251.466 137.207 251.445 137.686 251.404 138.16ZM218.706 136.767L218.707 136.715C218.707 136.269 218.726 135.801 218.765 135.342L219.687 135.421C219.651 135.854 219.632 136.295 219.632 136.734L218.706 136.767ZM250.476 135.322C250.435 134.874 250.375 134.424 250.296 133.986L251.207 133.822C251.291 134.287 251.355 134.763 251.398 135.237L250.476 135.322ZM219.858 134.085L218.946 133.926C219.027 133.457 219.13 132.987 219.251 132.531L220.146 132.768C220.031 133.198 219.935 133.642 219.858 134.085ZM250.002 132.671C249.884 132.238 249.746 131.806 249.592 131.388L250.46 131.068C250.623 131.511 250.77 131.97 250.895 132.43L250.002 132.671ZM220.546 131.482L219.676 131.167C219.837 130.721 220.021 130.276 220.22 129.846L221.059 130.236C220.871 130.643 220.699 131.061 220.546 131.482ZM249.07 130.146C248.88 129.743 248.669 129.342 248.442 128.954L249.241 128.487C249.481 128.898 249.705 129.323 249.907 129.751L249.07 130.146ZM221.68 129.039L220.878 128.578C221.114 128.168 221.372 127.762 221.644 127.372L222.403 127.901C222.146 128.269 221.903 128.652 221.68 129.039ZM247.713 127.822C247.455 127.457 247.178 127.098 246.887 126.755L247.594 126.158C247.901 126.521 248.195 126.9 248.468 127.286L247.713 127.822ZM223.222 126.829L222.512 126.236C222.816 125.872 223.14 125.517 223.475 125.181L224.131 125.835C223.815 126.152 223.509 126.486 223.222 126.829ZM245.974 125.766C245.655 125.45 245.319 125.144 244.977 124.858L245.57 124.147C245.933 124.45 246.288 124.773 246.626 125.108L245.974 125.766ZM225.12 124.921L224.524 124.214C224.887 123.907 225.268 123.612 225.654 123.34L226.187 124.096C225.822 124.354 225.464 124.632 225.12 124.921ZM243.905 124.042C243.537 123.786 243.153 123.542 242.766 123.32L243.227 122.518C243.637 122.754 244.043 123.012 244.434 123.283L243.905 124.042ZM227.321 123.368L226.856 122.568C227.265 122.33 227.691 122.106 228.12 121.904L228.514 122.741C228.108 122.933 227.707 123.144 227.321 123.368ZM241.569 122.701C241.161 122.512 240.741 122.34 240.322 122.189L240.635 121.318C241.079 121.478 241.524 121.66 241.957 121.861L241.569 122.701ZM229.756 122.223L229.437 121.354C229.882 121.19 230.34 121.045 230.798 120.921L231.04 121.814C230.608 121.931 230.176 122.069 229.756 122.223ZM239.036 121.789C238.603 121.675 238.16 121.579 237.72 121.503L237.876 120.591C238.343 120.671 238.813 120.774 239.272 120.895L239.036 121.789ZM232.354 121.52L232.191 120.609C232.657 120.526 233.133 120.463 233.606 120.421L233.688 121.342C233.243 121.381 232.794 121.441 232.354 121.52ZM236.382 121.333C235.953 121.297 235.517 121.279 235.085 121.279H235.034V120.354H235.085C235.542 120.354 236.004 120.373 236.458 120.411L236.382 121.333Z" fill="#162E4C"/>
<path d="M235.086 143.506C238.827 143.506 241.859 140.474 241.859 136.733C241.859 132.992 238.827 129.96 235.086 129.96C231.346 129.96 228.313 132.992 228.313 136.733C228.313 140.474 231.346 143.506 235.086 143.506Z" fill="white"/>
<path d="M235.087 143.353C231.437 143.353 228.467 140.383 228.467 136.733C228.467 133.083 231.437 130.113 235.087 130.113C238.737 130.113 241.707 133.083 241.707 136.733C241.707 140.384 238.737 143.353 235.087 143.353ZM235.087 131.113C231.988 131.113 229.467 133.634 229.467 136.733C229.467 139.832 231.988 142.353 235.087 142.353C238.186 142.353 240.707 139.832 240.707 136.733C240.707 133.634 238.185 131.113 235.087 131.113Z" fill="#486C9E"/>
<path d="M235.086 152.192C226.561 152.192 219.627 145.257 219.627 136.733C219.627 128.209 226.562 121.274 235.086 121.274C243.61 121.274 250.545 128.209 250.545 136.733C250.545 145.257 243.61 152.192 235.086 152.192ZM235.086 122.274C227.113 122.274 220.627 128.76 220.627 136.733C220.627 144.706 227.113 151.192 235.086 151.192C243.059 151.192 249.545 144.706 249.545 136.733C249.545 128.761 243.058 122.274 235.086 122.274Z" fill="#486C9E"/>
<path d="M236.952 136.733C236.952 137.763 236.117 138.599 235.086 138.599C234.056 138.599 233.22 137.764 233.22 136.733C233.22 135.702 234.055 134.867 235.086 134.867C236.117 134.868 236.952 135.703 236.952 136.733Z" fill="#162E4C"/>
<path d="M235.087 133.531C235.567 133.531 235.956 133.142 235.956 132.662C235.956 132.182 235.567 131.793 235.087 131.793C234.607 131.793 234.218 132.182 234.218 132.662C234.218 133.142 234.607 133.531 235.087 133.531Z" fill="#476B9E"/>
<path d="M235.087 141.674C235.567 141.674 235.956 141.284 235.956 140.805C235.956 140.325 235.567 139.936 235.087 139.936C234.607 139.936 234.218 140.325 234.218 140.805C234.218 141.284 234.607 141.674 235.087 141.674Z" fill="#476B9E"/>
<path d="M239.157 137.603C238.677 137.603 238.288 137.214 238.288 136.734C238.288 136.254 238.677 135.865 239.157 135.865C239.637 135.865 240.026 136.254 240.026 136.734C240.026 137.214 239.637 137.603 239.157 137.603Z" fill="#476B9E"/>
<path d="M231.015 137.603C230.535 137.603 230.146 137.214 230.146 136.734C230.146 136.254 230.535 135.865 231.015 135.865C231.495 135.865 231.884 136.254 231.884 136.734C231.884 137.214 231.495 137.603 231.015 137.603Z" fill="#476B9E"/>
<path d="M237.965 134.724C238.445 134.724 238.834 134.335 238.834 133.855C238.834 133.375 238.445 132.986 237.965 132.986C237.485 132.986 237.096 133.375 237.096 133.855C237.096 134.335 237.485 134.724 237.965 134.724Z" fill="#476B9E"/>
<path d="M232.822 140.227C232.482 140.567 231.932 140.567 231.593 140.227C231.254 139.888 231.254 139.337 231.593 138.998C231.933 138.658 232.483 138.658 232.822 138.998C233.161 139.337 233.161 139.887 232.822 140.227Z" fill="#476B9E"/>
<path d="M237.35 140.227C237.01 139.888 237.01 139.337 237.35 138.998C237.689 138.658 238.24 138.658 238.579 138.998C238.918 139.337 238.918 139.888 238.579 140.227C238.24 140.566 237.689 140.566 237.35 140.227Z" fill="#476B9E"/>
<path d="M231.592 134.47C231.253 134.131 231.253 133.58 231.592 133.241C231.932 132.902 232.482 132.902 232.821 133.241C233.161 133.581 233.161 134.131 232.821 134.47C232.482 134.81 231.932 134.81 231.592 134.47Z" fill="#476B9E"/>
<path d="M214.863 140.371C216.869 131.813 211.557 123.248 202.999 121.242C194.44 119.236 185.876 124.548 183.87 133.107C181.864 141.665 187.175 150.23 195.734 152.236C204.293 154.242 212.857 148.93 214.863 140.371Z" fill="#162E4C"/>
<path d="M199.389 153.113L199.352 153.112C199.348 153.112 199.343 153.112 199.339 153.112C198.892 153.112 198.423 153.092 197.963 153.053L198.042 152.132C198.481 152.17 198.928 152.188 199.372 152.188L199.389 153.113ZM200.816 153.05L200.736 152.128C201.182 152.089 201.632 152.03 202.072 151.952L202.233 152.863C201.766 152.947 201.289 153.009 200.816 153.05ZM196.547 152.87C196.078 152.788 195.608 152.685 195.152 152.564L195.39 151.671C195.821 151.786 196.263 151.883 196.705 151.96L196.547 152.87ZM203.626 152.555L203.386 151.661C203.819 151.545 204.251 151.408 204.671 151.255L204.988 152.124C204.543 152.287 204.085 152.432 203.626 152.555ZM193.789 152.137C193.343 151.976 192.898 151.792 192.468 151.591L192.858 150.753C193.264 150.942 193.684 151.114 194.104 151.267L193.789 152.137ZM206.307 151.577L205.915 150.74C206.321 150.55 206.722 150.339 207.109 150.115L207.573 150.917C207.162 151.154 206.737 151.376 206.307 151.577ZM191.2 150.932C190.789 150.695 190.383 150.437 189.995 150.165L190.525 149.408C190.891 149.664 191.274 149.907 191.662 150.132L191.2 150.932ZM208.775 150.147L208.244 149.391C208.609 149.134 208.969 148.857 209.312 148.568L209.907 149.276C209.543 149.582 209.162 149.875 208.775 150.147ZM188.862 149.297C188.497 148.991 188.142 148.667 187.807 148.333L188.46 147.678C188.776 147.993 189.111 148.299 189.455 148.587L188.862 149.297ZM210.959 148.311L210.305 147.656C210.619 147.342 210.926 147.007 211.216 146.662L211.924 147.257C211.617 147.623 211.292 147.977 210.959 148.311ZM186.84 147.283C186.534 146.92 186.241 146.539 185.968 146.151L186.724 145.618C186.981 145.984 187.258 146.343 187.547 146.686L186.84 147.283ZM212.794 146.125L212.036 145.594C212.294 145.226 212.538 144.844 212.761 144.457L213.562 144.921C213.325 145.331 213.067 145.735 212.794 146.125ZM185.199 144.949C184.959 144.537 184.737 144.112 184.536 143.684L185.374 143.292C185.563 143.695 185.773 144.096 185.999 144.484L185.199 144.949ZM214.223 143.654L213.384 143.262C213.574 142.855 213.747 142.436 213.9 142.016L214.769 142.333C214.608 142.777 214.424 143.222 214.223 143.654ZM183.987 142.366C183.824 141.922 183.678 141.464 183.555 141.004L184.449 140.763C184.566 141.197 184.703 141.629 184.856 142.047L183.987 142.366ZM215.198 140.97L214.304 140.732C214.419 140.3 214.516 139.858 214.594 139.417L215.506 139.576C215.424 140.043 215.32 140.512 215.198 140.97ZM183.244 139.611C183.161 139.145 183.099 138.667 183.056 138.194L183.978 138.113C184.017 138.559 184.077 139.009 184.155 139.449L183.244 139.611ZM215.69 138.16L214.768 138.081C214.806 137.634 214.826 137.181 214.826 136.734L214.825 136.667H215.75V136.725C215.752 137.207 215.731 137.686 215.69 138.16ZM182.992 136.767L182.993 136.715C182.992 136.269 183.012 135.801 183.051 135.342L183.973 135.421C183.937 135.854 183.918 136.295 183.918 136.734L182.992 136.767ZM214.763 135.322C214.722 134.874 214.662 134.424 214.583 133.986L215.494 133.822C215.578 134.287 215.642 134.763 215.685 135.237L214.763 135.322ZM184.144 134.085L183.232 133.926C183.313 133.457 183.416 132.987 183.537 132.531L184.432 132.768C184.317 133.198 184.221 133.642 184.144 134.085ZM214.288 132.671C214.17 132.238 214.032 131.806 213.878 131.388L214.746 131.068C214.91 131.511 215.056 131.97 215.181 132.43L214.288 132.671ZM184.833 131.482L183.963 131.167C184.124 130.721 184.308 130.276 184.507 129.846L185.346 130.236C185.157 130.643 184.985 131.061 184.833 131.482ZM213.357 130.146C213.167 129.743 212.956 129.342 212.729 128.954L213.528 128.487C213.768 128.898 213.992 129.323 214.193 129.751L213.357 130.146ZM185.967 129.039L185.165 128.578C185.401 128.168 185.659 127.762 185.931 127.372L186.69 127.901C186.432 128.269 186.189 128.652 185.967 129.039ZM211.999 127.822C211.741 127.457 211.464 127.098 211.174 126.755L211.881 126.158C212.188 126.521 212.482 126.9 212.755 127.286L211.999 127.822ZM187.508 126.829L186.798 126.236C187.103 125.872 187.427 125.517 187.761 125.181L188.417 125.835C188.101 126.152 187.795 126.486 187.508 126.829ZM210.261 125.766C209.942 125.45 209.606 125.144 209.263 124.858L209.856 124.147C210.219 124.45 210.574 124.773 210.912 125.108L210.261 125.766ZM189.406 124.921L188.81 124.214C189.173 123.907 189.554 123.612 189.94 123.34L190.473 124.096C190.109 124.354 189.75 124.632 189.406 124.921ZM208.191 124.042C207.823 123.786 207.439 123.542 207.052 123.32L207.513 122.518C207.923 122.754 208.329 123.012 208.72 123.283L208.191 124.042ZM191.607 123.368L191.142 122.568C191.551 122.33 191.976 122.106 192.406 121.904L192.8 122.741C192.395 122.933 191.993 123.144 191.607 123.368ZM205.855 122.701C205.447 122.512 205.027 122.34 204.608 122.189L204.922 121.318C205.366 121.478 205.811 121.66 206.244 121.861L205.855 122.701ZM194.042 122.223L193.723 121.354C194.168 121.19 194.626 121.045 195.084 120.921L195.326 121.814C194.894 121.931 194.462 122.069 194.042 122.223ZM203.322 121.789C202.889 121.675 202.446 121.579 202.006 121.503L202.162 120.591C202.629 120.671 203.099 120.774 203.558 120.895L203.322 121.789ZM196.64 121.52L196.477 120.609C196.943 120.526 197.419 120.463 197.892 120.421L197.974 121.342C197.529 121.381 197.08 121.441 196.64 121.52ZM200.669 121.333C200.24 121.297 199.804 121.279 199.372 121.279H199.321V120.354H199.372C199.829 120.354 200.291 120.373 200.746 120.411L200.669 121.333Z" fill="#162E4C"/>
<path d="M199.373 143.507C203.113 143.507 206.146 140.475 206.146 136.734C206.146 132.993 203.113 129.961 199.373 129.961C195.632 129.961 192.6 132.993 192.6 136.734C192.6 140.475 195.632 143.507 199.373 143.507Z" fill="white"/>
<path d="M199.372 143.353C195.722 143.353 192.752 140.383 192.752 136.733C192.752 133.083 195.722 130.113 199.372 130.113C203.022 130.113 205.992 133.083 205.992 136.733C205.992 140.384 203.022 143.353 199.372 143.353ZM199.372 131.113C196.273 131.113 193.752 133.634 193.752 136.733C193.752 139.832 196.274 142.353 199.372 142.353C202.47 142.353 204.992 139.832 204.992 136.733C204.992 133.634 202.471 131.113 199.372 131.113Z" fill="#486C9E"/>
<path d="M199.372 152.192C190.848 152.192 183.913 145.257 183.913 136.733C183.913 128.209 190.848 121.274 199.372 121.274C207.896 121.274 214.831 128.209 214.831 136.733C214.831 145.257 207.896 152.192 199.372 152.192ZM199.372 122.274C191.399 122.274 184.913 128.76 184.913 136.733C184.913 144.706 191.399 151.192 199.372 151.192C207.345 151.192 213.831 144.706 213.831 136.733C213.831 128.761 207.345 122.274 199.372 122.274Z" fill="#486C9E"/>
<path d="M199.372 138.6C200.402 138.6 201.238 137.765 201.238 136.734C201.238 135.704 200.402 134.868 199.372 134.868C198.341 134.868 197.506 135.704 197.506 136.734C197.506 137.765 198.341 138.6 199.372 138.6Z" fill="#162E4C"/>
<path d="M200.241 132.663C200.241 133.143 199.852 133.532 199.372 133.532C198.892 133.532 198.503 133.143 198.503 132.663C198.503 132.183 198.892 131.794 199.372 131.794C199.852 131.794 200.241 132.183 200.241 132.663Z" fill="#476B9E"/>
<path d="M200.241 140.806C200.241 141.286 199.852 141.675 199.372 141.675C198.892 141.675 198.503 141.286 198.503 140.806C198.503 140.326 198.892 139.937 199.372 139.937C199.852 139.937 200.241 140.325 200.241 140.806Z" fill="#476B9E"/>
<path d="M203.443 137.602C203.923 137.602 204.312 137.213 204.312 136.733C204.312 136.253 203.923 135.864 203.443 135.864C202.963 135.864 202.574 136.253 202.574 136.733C202.574 137.213 202.963 137.602 203.443 137.602Z" fill="#476B9E"/>
<path d="M195.302 137.602C195.782 137.602 196.171 137.213 196.171 136.733C196.171 136.253 195.782 135.864 195.302 135.864C194.822 135.864 194.433 136.253 194.433 136.733C194.433 137.213 194.822 137.602 195.302 137.602Z" fill="#476B9E"/>
<path d="M202.865 134.47C202.526 134.81 201.975 134.81 201.636 134.47C201.296 134.131 201.296 133.58 201.636 133.241C201.975 132.902 202.526 132.902 202.865 133.241C203.205 133.58 203.205 134.131 202.865 134.47Z" fill="#476B9E"/>
<path d="M197.108 140.227C196.768 140.567 196.218 140.567 195.879 140.227C195.539 139.888 195.539 139.337 195.879 138.998C196.219 138.658 196.769 138.658 197.108 138.998C197.447 139.337 197.447 139.887 197.108 140.227Z" fill="#476B9E"/>
<path d="M201.636 140.227C201.296 139.888 201.296 139.337 201.636 138.998C201.975 138.658 202.526 138.658 202.865 138.998C203.204 139.337 203.204 139.888 202.865 140.227C202.526 140.566 201.975 140.566 201.636 140.227Z" fill="#476B9E"/>
<path d="M195.879 134.47C195.539 134.131 195.539 133.58 195.879 133.241C196.219 132.902 196.769 132.902 197.108 133.241C197.447 133.581 197.447 134.131 197.108 134.47C196.768 134.81 196.218 134.81 195.879 134.47Z" fill="#476B9E"/>
<path d="M252.994 136.389H251.994C251.994 127.239 244.55 119.795 235.399 119.795H198.888C189.739 119.795 182.294 127.239 182.294 136.389H181.294C181.294 126.687 189.187 118.795 198.888 118.795H235.399C245.101 118.795 252.994 126.687 252.994 136.389Z" fill="#162E4C"/>
</svg>
